<?xml version="1.0" encoding="utf-8"?><!-- Uploaded to: SVG Repo, www.svgrepo.com, Generator: SVG Repo Mixer Tools -->
<svg fill="#000000" width="800px" height="800px" viewBox="0 0 24 24" xmlns="http://www.w3.org/2000/svg" id="download" class="icon glyph"><path d="M20,15a1,1,0,0,0-1,1V20a.22.22,0,0,1-.15.05H5.14C5.06,20,5,20,5,20V16a1,1,0,0,0-2,0v4a2.08,2.08,0,0,0,2.14,2H18.86A2.08,2.08,0,0,0,21,20V16A1,1,0,0,0,20,15Z"></path><path d="M11.29,16.71a1,1,0,0,0,.33.21.94.94,0,0,0,.76,0,1,1,0,0,0,.33-.21l4-4a1,1,0,0,0-1.42-1.42L13,13.59V3a1,1,0,0,0-2,0V13.59l-2.29-2.3a1,1,0,1,0-1.42,1.42Z"></path></svg>