<?xml version="1.0" encoding="iso-8859-1"?>
<!-- Uploaded to: SVG Repo, www.svgrepo.com, Generator: SVG Repo Mixer Tools -->
<!DOCTYPE svg PUBLIC "-//W3C//DTD SVG 1.1//EN" "http://www.w3.org/Graphics/SVG/1.1/DTD/svg11.dtd">
<svg fill="#000000" version="1.1" id="Capa_1" xmlns="http://www.w3.org/2000/svg" xmlns:xlink="http://www.w3.org/1999/xlink" 
	 width="800px" height="800px" viewBox="0 0 268.74 268.74"
	 xml:space="preserve">
<g>
	<g>
		<path d="M17.83,229.123c0.927,0.341,1.974,0.162,2.722-0.488c8.648-7.538,41.648-12.348,56.016-12.348
			c17.389,0,47.686,3.428,55.232,26.363c0.364,1.123,1.409,1.857,2.554,1.857c0.136,0,0.283-0.01,0.43-0.041
			c1.303-0.2,2.264-1.322,2.264-2.646v-0.052c7.731-22.636,37.79-26.048,55.097-26.048c14.368,0,47.365,4.819,56.018,12.347
			c0.745,0.646,1.795,0.83,2.719,0.482c0.925-0.335,1.585-1.182,1.712-2.15l16.147-123.551c0-13.455-8.222-25.995-23.707-36.336
			c-6.95-24.938-29.634-42.279-55.582-42.279c-25.91,0-47.885,17.139-55.194,40.677c-7.488-23.244-29.297-40.115-55.001-40.115
			c-25.942,0-48.63,17.339-55.57,42.276C8.192,77.412-0.031,89.958,0,103.758l16.127,123.196
			C16.245,227.941,16.901,228.77,17.83,229.123z M137.042,82.018c0-28.898,23.513-52.41,52.409-52.41
			c23.845,0,44.685,16.134,50.679,39.237c1.145,4.446,1.732,8.874,1.748,12.875l-12.992,114.888
			c-9.854-7.19-21.771-11.102-34.059-11.102c-1.396,0-2.823,0.062-4.262,0.161c-0.468,0.038-0.945,0.101-1.408,0.132
			c-0.991,0.102-1.979,0.189-2.98,0.341c-0.557,0.08-1.092,0.169-1.66,0.254c-0.944,0.146-1.888,0.33-2.823,0.507
			c-0.567,0.117-1.14,0.233-1.7,0.363c-0.967,0.221-1.933,0.462-2.909,0.729c-0.534,0.131-1.06,0.273-1.597,0.432
			c-1.143,0.324-2.277,0.693-3.412,1.075c-0.346,0.111-0.696,0.216-1.039,0.341c-1.479,0.526-2.96,1.093-4.42,1.702
			c-0.335,0.141-0.665,0.304-0.997,0.445c-1.122,0.487-2.236,0.991-3.327,1.532c-0.493,0.243-0.977,0.5-1.459,0.752
			c-0.936,0.481-1.859,0.987-2.773,1.496c-0.514,0.288-1.018,0.587-1.521,0.896c-0.881,0.524-1.743,1.077-2.603,1.639
			c-0.473,0.324-0.956,0.63-1.429,0.966c-0.903,0.62-1.773,1.27-2.646,1.942c-0.379,0.293-0.777,0.571-1.155,0.881
			c-2.437,1.953-4.72,4.074-6.792,6.342c-0.332,0.342-0.615,0.714-0.925,1.071c-0.692,0.793-1.376,1.596-2.015,2.437
			c-0.337,0.439-0.662,0.891-0.994,1.354c-0.319,0.431-0.649,0.846-0.948,1.29V82.579L137.042,82.018L137.042,82.018z
			 M79.255,30.169c28.898,0,52.411,23.512,52.411,52.41v132.554c-0.297-0.441-0.631-0.856-0.948-1.298
			c-0.329-0.45-0.643-0.901-0.987-1.354c-0.641-0.823-1.323-1.644-2.017-2.436c-0.317-0.341-0.598-0.73-0.921-1.067
			c-2.079-2.272-4.36-4.376-6.798-6.345c-0.373-0.299-0.764-0.573-1.152-0.872c-0.863-0.673-1.745-1.322-2.648-1.942
			c-0.475-0.341-0.953-0.635-1.431-0.966c-0.855-0.562-1.719-1.112-2.601-1.643c-0.506-0.306-1.011-0.594-1.518-0.893
			c-0.908-0.524-1.837-1.013-2.773-1.496c-0.488-0.252-0.966-0.509-1.457-0.75c-1.095-0.541-2.208-1.047-3.325-1.529
			c-0.339-0.141-0.667-0.31-1.006-0.455c-1.456-0.604-2.934-1.177-4.415-1.69c-0.343-0.127-0.692-0.221-1.036-0.337
			c-1.139-0.378-2.279-0.756-3.418-1.07c-0.538-0.158-1.061-0.294-1.593-0.432c-0.977-0.262-1.945-0.514-2.919-0.734
			c-0.564-0.125-1.128-0.252-1.693-0.356c-0.949-0.189-1.897-0.357-2.837-0.515c-0.554-0.095-1.103-0.179-1.651-0.262
			c-1-0.127-1.989-0.241-2.979-0.332c-0.467-0.052-0.94-0.109-1.413-0.13c-1.441-0.111-2.861-0.158-4.263-0.158
			c-12.289,0-24.21,3.916-34.058,11.086L26.835,82.584c0-4.302,0.585-8.735,1.74-13.17l0,0l0,0
			C34.581,46.301,55.416,30.169,79.255,30.169z"/>
		<path d="M56.626,84.76c1.092-0.774,27.052-18.758,53.317,0c0.478,0.339,1.017,0.501,1.56,0.501c0.837,0,1.672-0.394,2.187-1.123
			c0.866-1.21,0.583-2.887-0.622-3.748c-29.441-21.035-59.263-0.216-59.565,0c-1.21,0.861-1.478,2.537-0.625,3.748
			C53.738,85.341,55.421,85.622,56.626,84.76z"/>
		<path d="M56.626,117.013c1.092-0.774,27.052-18.759,53.317,0c0.478,0.339,1.017,0.501,1.56,0.501c0.837,0,1.672-0.388,2.187-1.123
			c0.866-1.21,0.583-2.887-0.622-3.748c-29.441-21.035-59.263-0.215-59.565,0c-1.21,0.861-1.478,2.538-0.625,3.748
			C53.738,117.593,55.421,117.874,56.626,117.013z"/>
		<path d="M56.626,149.262c1.092-0.771,27.052-18.75,53.317,0c0.478,0.343,1.017,0.504,1.56,0.504c0.837,0,1.672-0.387,2.187-1.122
			c0.866-1.207,0.583-2.888-0.622-3.749c-29.441-21.019-59.263-0.203-59.565,0c-1.21,0.861-1.478,2.552-0.625,3.749
			C53.738,149.844,55.421,150.125,56.626,149.262z"/>
		<path d="M157.2,84.706c0.545,0,1.086-0.16,1.558-0.499c26.273-18.767,52.237-0.775,53.319,0c1.206,0.861,2.887,0.575,3.748-0.63
			c0.86-1.208,0.571-2.885-0.631-3.746c-0.293-0.209-30.119-21.029-59.565,0c-1.213,0.861-1.485,2.543-0.623,3.746
			C155.54,84.315,156.358,84.706,157.2,84.706z"/>
		<path d="M157.2,116.958c0.545,0,1.086-0.161,1.558-0.504c26.273-18.761,52.237-0.78,53.319,0c1.206,0.861,2.887,0.585,3.748-0.625
			c0.86-1.208,0.571-2.885-0.631-3.746c-0.293-0.215-30.119-21.029-59.565,0c-1.213,0.861-1.485,2.543-0.623,3.746
			C155.54,116.567,156.358,116.958,157.2,116.958z"/>
		<path d="M157.2,149.21c0.545,0,1.086-0.158,1.558-0.504c26.273-18.756,52.237-0.776,53.319,0c1.206,0.87,2.887,0.588,3.748-0.625
			c0.86-1.208,0.571-2.883-0.631-3.743c-0.293-0.21-30.119-21.025-59.565,0c-1.213,0.86-1.485,2.546-0.623,3.743
			C155.54,148.822,156.358,149.21,157.2,149.21z"/>
	</g>
</g>
</svg>