<?xml version="1.0" encoding="utf-8"?>
<!-- Generator: Adobe Illustrator 27.5.0, SVG Export Plug-In . SVG Version: 6.00 Build 0)  -->
<svg version="1.1" xmlns="http://www.w3.org/2000/svg" xmlns:xlink="http://www.w3.org/1999/xlink" x="0px" y="0px"
	 viewBox="0 0 750 500" style="enable-background:new 0 0 750 500;" xml:space="preserve">
<g id="Background_Simple">
	<g>
		<path style="fill:#92E3A9;" d="M700.429,122.261c-18.449-25.758-42.274-45.956-69.06-59.566
			c-36.858-18.727-95.138-44.171-138.447-43.395c-68.309,1.224-222.05,85.122-302.366,101.083S-7.871,195.929,16.696,317.228
			c24.567,121.299,89.765,157.476,214.491,141.515c124.726-15.96,169.136-31.921,270.24-11.704
			c101.104,20.216,217.326,6.384,229.609-138.323C740.029,202.769,726.737,158.991,700.429,122.261z"/>
		<path style="opacity:0.7;fill:#FFFFFF;" d="M700.429,122.261c-18.449-25.758-42.274-45.956-69.06-59.566
			c-36.858-18.727-95.138-44.171-138.447-43.395c-68.309,1.224-222.05,85.122-302.366,101.083S-7.871,195.929,16.696,317.228
			c24.567,121.299,89.765,157.476,214.491,141.515c124.726-15.96,169.136-31.921,270.24-11.704
			c101.104,20.216,217.326,6.384,229.609-138.323C740.029,202.769,726.737,158.991,700.429,122.261z"/>
	</g>
</g>
<g id="Mug">
	<g>
		<path style="fill:#263238;stroke:#263238;stroke-miterlimit:10;" d="M91.094,126.845l2.691,32.862c0,0-23.421-3.84-29.64,8.598
			c-6.219,12.438-6.219,44.915,8.292,62.189c10.454,12.446,21.624,7.317,27.053,3.477l2.815,35.909
			c0,13.415,25.763,38.109,57.542,38.109c31.78,0,57.542-24.694,57.542-38.109l11.211-143.036H91.094z M80.729,215.983
			c-8.983-7.601-4.146-40.768,0-44.914c3.076-3.076,10.331-0.828,13.873,0.537l3.707,47.301
			C93.679,220.076,86.384,220.767,80.729,215.983z"/>
		<ellipse style="fill:#FFFFFF;stroke:#263238;stroke-miterlimit:10;" cx="159.848" cy="126.845" rx="68.754" ry="29.022"/>
		<ellipse style="fill:#FFFFFF;stroke:#263238;stroke-miterlimit:10;" cx="159.848" cy="126.845" rx="61.174" ry="25.822"/>
		<path style="fill:#92E3A9;stroke:#263238;stroke-miterlimit:10;" d="M116.865,145.213c11.049,4.607,26.226,7.453,42.983,7.453
			c16.757,0,31.935-2.846,42.983-7.453c-11.048-4.607-26.226-7.453-42.983-7.453C143.091,137.76,127.913,140.607,116.865,145.213z"
			/>
	</g>
</g>
<g id="Books_2_1_">
	<g>
		<path style="fill:#263238;stroke:#263238;stroke-miterlimit:10;" d="M403.006,203.247c0,0,32.701,77.663,40.574,81.769
			c7.873,4.105,238.58-15.92,238.58-15.92l-6.545-7.286l-0.313-50.261l8.625-0.381L595.795,95.091l-199.163,14.544
			c0,0-10.685,7.405-12.11,13.804c-1.426,6.399-1.105,16.073-1.105,16.073L403.006,203.247z"/>
		<path style="fill:#E0E0E0;stroke:#263238;stroke-miterlimit:10;" d="M675.301,211.548l-226.346,18.226
			c0,0-10.646,6.118-12.306,20.241c-1.661,14.123,4.054,28.471,8.298,30.533c4.244,2.062,9.776,2.231,9.776,2.231l220.892-20.969
			L675.301,211.548z"/>
	</g>
	<g>
		<path style="fill:#92E3A9;stroke:#263238;stroke-miterlimit:10;" d="M445.001,36.138L353.709,162.19c0,0-4.974,4.901-4.737,16.907
			c0.237,12.007,0.846,31.603,4.423,32.975c3.577,1.372,267.724,21.424,267.724,21.424l60.985-140.87l-4.763-2.04l1.66-34.684
			l3.961-11.247L451.706,33.816L445.001,36.138z"/>
		<path style="fill:#FFFFFF;stroke:#263238;stroke-miterlimit:10;" d="M361.922,165.777c0,0-8.265-2.555-10.607,5.382
			c-2.342,7.937,3.421,36.715,3.421,36.715s4.932,2.052,7.2,2.121c2.268,0.069,256.475,16.853,256.475,16.853l58.93-136.262
			l1.66-34.684l-56.378,122.102L361.922,165.777z"/>
		<path style="fill:#E0E0E0;stroke:#263238;stroke-miterlimit:10;" d="M616.793,177.731l-254.871-11.953
			c0,0-8.265-2.555-10.607,5.382c-2.342,7.937,3.421,36.715,3.421,36.715s4.932,2.052,7.2,2.121
			c2.268,0.069,256.475,16.853,256.475,16.853l-0.352-48.033L616.793,177.731z"/>
	</g>
</g>
<g id="Book_1">
	<g>
		<path style="fill:#92E3A9;stroke:#263238;stroke-miterlimit:10;" d="M396.157,424.032c0,0,9.339,13.472,19.103,13.255
			c65.064-1.446,177.255,29.695,190.283,29.695c13.028,0,22.697-1.155,22.697-3.918c0-2.763-45.795-183.969-45.795-183.969
			l-9.08-2.763l31.188,176.863c0,0-38.689-5.527-116.856-18.555c-78.167-13.028-74.96-24.029-84.434-22.055
			C393.788,414.557,396.157,424.032,396.157,424.032z"/>
		<path style="fill:#263238;stroke:#263238;stroke-miterlimit:10;" d="M614.818,462.274c-13.423-0.79-39.53-7.588-103.944-20.812
			c-64.414-13.224-112.746-21.239-112.746-21.239l-1.355,4.647c2.228,2.935,10.203,12.602,18.488,12.418
			c65.064-1.446,177.255,29.695,190.283,29.695c13.028,0,22.697-1.155,22.697-3.918C628.24,462.837,621.513,462.668,614.818,462.274
			z"/>
		<path style="fill:#92E3A9;stroke:#263238;stroke-miterlimit:10;" d="M185.342,272.04c0,0-4.737,1.579-5.527,5.132
			c-0.79,3.553-46.19,185.548-41.847,185.943c4.343,0.395,243.582,1.974,246.345-0.79c2.763-2.763,11.843-38.294,11.843-38.294
			l-20.134,27.24l-207.656-5.132l24.871-169.757L185.342,272.04z"/>
		<path style="fill:#263238;stroke:#263238;stroke-miterlimit:10;" d="M384.314,462.326c2.763-2.763,11.843-38.294,11.843-38.294
			l-1.332,1.803l-12.485,32.149l-241.957,3.116l-2.414,2.016C142.311,463.511,381.55,465.09,384.314,462.326z"/>
		<polygon style="fill:#FFFFFF;stroke:#263238;stroke-miterlimit:10;" points="190.869,269.672 185.342,272.04 147.048,457.194 
			382.34,457.984 398.131,417.321 177.052,427.98 197.581,269.277 		"/>
		<polygon style="fill:#E0E0E0;stroke:#263238;stroke-miterlimit:10;" points="162.84,433.902 152.113,451.745 147.048,457.194 
			382.34,457.984 398.131,417.321 177.052,427.98 		"/>
		<polygon style="fill:#B8B8B8;stroke:#263238;stroke-miterlimit:10;" points="398.131,417.321 398.131,381.001 208.24,401.924 
			194.028,426.796 		"/>
		<path style="fill:#E0E0E0;stroke:#263238;stroke-miterlimit:10;" d="M199.555,249.538l-5.527,0.79L162.84,433.902
			c0,0,25.661-1.974,60.402-10.264c34.741-8.291,105.407-20.924,129.094-17.371c23.687,3.553,43.821,17.765,43.821,17.765
			s29.559,5.869,62.721,12.58c33.162,6.711,82.51,16.976,115.277,22.503c32.767,5.527,40.663,3.158,40.663,3.158l-40.663-189.102
			l-3.948-1.184l21.713,171.336c0,0-136.941-37.847-155.101-37.847c-18.16,0-28.03-19.344-64.35-26.451
			c-36.32-7.106-76.983,7.106-111.329,13.028c-34.346,5.922-63.56,15.791-63.56,15.791l9.08-158.308H199.555z"/>
		<polygon style="fill:#FFFFFF;stroke:#263238;stroke-miterlimit:10;" points="177.052,427.98 162.84,433.902 194.028,250.327 
			206.661,249.538 		"/>
		<g>
			<path style="fill:#FFFFFF;stroke:#263238;stroke-miterlimit:10;" d="M393.393,225.061c0,0,3.553-6.317,35.925,1.974
				c32.372,8.291,66.274,29.161,93.909,33.109c27.635,3.948,45.795,7.896,45.795,7.896l37.505,190.286
				c0,0-61.192-8.29-118.83-23.687c-57.638-15.396-82.066-25.608-89.566-17.318L393.393,225.061z"/>
			<g>
				<g>
					<path style="fill:none;stroke:#263238;stroke-miterlimit:10;" d="M491.186,277.046c0,0,1.993,0,67.762,14.449"/>
					<path style="fill:none;stroke:#263238;stroke-miterlimit:10;" d="M491.84,285.049c0,0,1.842,0.089,24.534,4.951
						c10.444,2.239,25.553,5.669,43.975,9.716"/>
					<path style="fill:none;stroke:#263238;stroke-miterlimit:10;" d="M492.494,293.053c0,0,2.703,0.179,24.825,4.92
						c10.977,2.356,27.238,6.188,44.432,9.965"/>
					<path style="fill:none;stroke:#263238;stroke-miterlimit:10;" d="M493.148,301.056c0,0,3.565,0.268,25.116,4.889
						c11.51,2.472,28.922,6.707,44.888,10.214"/>
					<path style="fill:none;stroke:#263238;stroke-miterlimit:10;" d="M493.802,309.059c0,0,4.427,0.357,25.407,4.858
						c12.043,2.589,30.607,7.226,45.344,10.463"/>
					<path style="fill:none;stroke:#263238;stroke-miterlimit:10;" d="M494.456,317.062c0,0,5.288,0.447,25.698,4.827
						c12.575,2.705,32.291,7.745,45.801,10.712"/>
					<path style="fill:none;stroke:#263238;stroke-miterlimit:10;" d="M495.11,325.065c0,0,6.15,0.536,25.989,4.796
						c13.108,2.822,33.976,8.264,46.257,10.962"/>
					<path style="fill:none;stroke:#263238;stroke-miterlimit:10;" d="M495.764,333.068c0,0,7.012,0.625,26.28,4.764
						c13.641,2.938,35.661,8.782,46.714,11.211"/>
					<path style="fill:none;stroke:#263238;stroke-miterlimit:10;" d="M496.418,341.071c0,0,7.874,0.714,26.571,4.733
						c14.174,3.054,37.345,9.301,47.17,11.46"/>
					<path style="fill:none;stroke:#263238;stroke-miterlimit:10;" d="M497.072,349.074c0,0,8.735,0.804,26.862,4.702
						c14.706,3.171,39.03,9.82,47.626,11.709"/>
					<path style="fill:none;stroke:#263238;stroke-miterlimit:10;" d="M497.726,357.078c0,0,9.597,0.893,27.153,4.671
						c15.239,3.287,40.714,10.339,48.083,11.958"/>
					<path style="fill:none;stroke:#263238;stroke-miterlimit:10;" d="M498.38,365.081c0,0,10.459,0.982,27.444,4.64
						c15.772,3.404,42.399,10.858,48.539,12.207"/>
					<path style="fill:none;stroke:#263238;stroke-miterlimit:10;" d="M499.033,373.084c0,0,11.32,1.072,27.735,4.609
						c16.304,3.52,44.083,11.377,48.996,12.456"/>
					<path style="fill:none;stroke:#263238;stroke-miterlimit:10;" d="M499.688,381.087c0,0,12.182,1.161,28.026,4.578
						c16.837,3.637,45.768,11.896,49.452,12.705"/>
					<path style="fill:none;stroke:#263238;stroke-miterlimit:10;" d="M500.341,389.09c0,0,13.044,1.25,28.316,4.547
						c17.37,3.753,47.452,12.415,49.909,12.954"/>
					<path style="fill:none;stroke:#263238;stroke-miterlimit:10;" d="M500.995,397.093c0,0,13.905,1.34,28.608,4.515
						c17.902,3.87,49.137,12.934,50.365,13.204"/>
					<path style="fill:none;stroke:#263238;stroke-miterlimit:10;" d="M501.649,405.096c0,0,14.767,1.429,28.898,4.484
						c18.435,3.986,50.821,13.453,50.821,13.453"/>
				</g>
				<g>
					<path style="fill:none;stroke:#263238;stroke-miterlimit:10;" d="M405.768,245.243c0,0,14.276,0.464,27.853,4.844
						c12.513,4.037,22.201,12.514,47.632,24.22"/>
					<path style="fill:none;stroke:#263238;stroke-miterlimit:10;" d="M481.883,282.43c-23.841-10.975-33.428-19.174-46.875-23.539
						c-14.444-4.686-28.635-5.248-29.19-5.071"/>
					<path style="fill:none;stroke:#263238;stroke-miterlimit:10;" d="M482.514,290.554c-22.252-10.243-31.738-18.165-46.118-22.857
						c-15.311-4.993-29.417-5.651-30.527-5.298"/>
					<path style="fill:none;stroke:#263238;stroke-miterlimit:10;" d="M483.145,298.678c-20.662-9.511-30.048-17.156-45.361-22.176
						c-16.178-5.299-30.199-6.055-31.864-5.525"/>
					<path style="fill:none;stroke:#263238;stroke-miterlimit:10;" d="M483.775,306.801c-19.073-8.78-28.357-16.146-44.605-21.495
						c-17.045-5.606-30.981-6.458-33.201-5.752"/>
					<path style="fill:none;stroke:#263238;stroke-miterlimit:10;" d="M484.406,314.925c-17.484-8.048-26.667-15.137-43.848-20.814
						c-17.912-5.912-31.763-6.862-34.538-5.979"/>
					<path style="fill:none;stroke:#263238;stroke-miterlimit:10;" d="M485.037,323.049c-15.894-7.316-24.977-14.128-43.091-20.133
						c-18.779-6.219-32.545-7.266-35.875-6.206"/>
					<path style="fill:none;stroke:#263238;stroke-miterlimit:10;" d="M485.667,331.172c-14.305-6.585-23.286-13.119-42.334-19.452
						c-19.646-6.525-33.327-7.669-37.213-6.433"/>
					<path style="fill:none;stroke:#263238;stroke-miterlimit:10;" d="M486.298,339.296c-12.715-5.853-21.596-12.11-41.577-18.77
						c-20.513-6.832-34.109-8.073-38.55-6.66"/>
					<path style="fill:none;stroke:#263238;stroke-miterlimit:10;" d="M486.929,347.42c-11.126-5.121-19.906-11.101-40.82-18.089
						c-21.38-7.138-34.891-8.477-39.887-6.887"/>
					<path style="fill:none;stroke:#263238;stroke-miterlimit:10;" d="M487.56,355.543c-9.536-4.39-18.215-10.091-40.063-17.408
						c-22.247-7.445-35.674-8.88-41.224-7.115"/>
					<path style="fill:none;stroke:#263238;stroke-miterlimit:10;" d="M488.19,363.667c-7.947-3.658-16.525-9.082-39.306-16.727
						c-23.114-7.751-36.456-9.284-42.561-7.342"/>
					<path style="fill:none;stroke:#263238;stroke-miterlimit:10;" d="M488.821,371.791c-6.358-2.927-14.835-8.073-38.55-16.046
						c-23.981-8.058-37.238-9.688-43.898-7.569"/>
					<path style="fill:none;stroke:#263238;stroke-miterlimit:10;" d="M489.452,379.914c-4.768-2.195-13.144-7.064-37.793-15.364
						c-24.848-8.365-38.02-10.092-45.235-7.796"/>
					<path style="fill:none;stroke:#263238;stroke-miterlimit:10;" d="M490.082,388.038c-3.179-1.463-11.454-6.055-37.036-14.683
						c-25.715-8.671-38.802-10.495-46.572-8.023"/>
					<path style="fill:none;stroke:#263238;stroke-miterlimit:10;" d="M490.713,396.162c-1.589-0.732-9.764-5.046-36.279-14.002
						c-26.582-8.978-39.584-10.899-47.91-8.25"/>
					<path style="fill:none;stroke:#263238;stroke-miterlimit:10;" d="M491.344,404.286c0,0-8.073-4.037-35.522-13.321
						c-27.449-9.284-40.366-11.302-49.247-8.477"/>
				</g>
			</g>
		</g>
		<g>
			<path style="fill:#FFFFFF;stroke:#263238;stroke-miterlimit:10;" d="M393.393,225.061l4.737,192.26
				c0,0-14.212-29.214-52.111-28.03c-37.899,1.184-121.593,30.398-135.016,33.162c-13.423,2.764-33.951,5.527-33.951,5.527
				l22.503-183.575c0,0,99.486-18.16,120.409-24.477c20.924-6.317,39.084-13.028,52.506-9.87
				C385.893,213.218,393.393,215.586,393.393,225.061z"/>
			<g>
				<g>
					<line style="fill:none;stroke:#263238;stroke-miterlimit:10;" x1="221.212" y1="266.543" x2="294.953" y2="250.101"/>
					<path style="fill:none;stroke:#263238;stroke-miterlimit:10;" d="M220.402,274.764c0,0,46.818-10.555,47.908-10.898
						c1.002-0.315,26.455-5.98,26.455-5.98"/>
					<path style="fill:none;stroke:#263238;stroke-miterlimit:10;" d="M219.593,282.986c0,0,46.122-10.516,48.302-11.201
						c2.004-0.63,26.685-6.113,26.685-6.113"/>
					<path style="fill:none;stroke:#263238;stroke-miterlimit:10;" d="M218.783,291.207c0,0,45.426-10.477,48.695-11.504
						c3.007-0.945,26.914-6.246,26.914-6.246"/>
					<path style="fill:none;stroke:#263238;stroke-miterlimit:10;" d="M217.973,299.428c0,0,44.729-10.437,49.089-11.807
						c4.009-1.26,27.143-6.379,27.143-6.379"/>
					<path style="fill:none;stroke:#263238;stroke-miterlimit:10;" d="M217.164,307.649c0,0,44.033-10.398,49.482-12.111
						c5.011-1.575,27.372-6.512,27.372-6.512"/>
					<path style="fill:none;stroke:#263238;stroke-miterlimit:10;" d="M216.354,315.87c0,0,43.336-10.358,49.876-12.414
						c6.013-1.89,27.602-6.644,27.602-6.644"/>
					<path style="fill:none;stroke:#263238;stroke-miterlimit:10;" d="M215.544,324.091c0,0,42.64-10.319,50.269-12.717
						c7.015-2.205,27.831-6.777,27.831-6.777"/>
					<path style="fill:none;stroke:#263238;stroke-miterlimit:10;" d="M214.735,332.312c0,0,41.944-10.28,50.663-13.02
						c8.017-2.52,28.06-6.91,28.06-6.91"/>
					<path style="fill:none;stroke:#263238;stroke-miterlimit:10;" d="M213.925,340.533c0,0,41.247-10.24,51.056-13.323
						c9.02-2.835,28.29-7.043,28.29-7.043"/>
					<path style="fill:none;stroke:#263238;stroke-miterlimit:10;" d="M213.115,348.754c0,0,40.551-10.201,51.45-13.626
						c10.022-3.15,28.519-7.175,28.519-7.175"/>
					<path style="fill:none;stroke:#263238;stroke-miterlimit:10;" d="M212.306,356.975c0,0,39.854-10.162,51.843-13.93
						c11.024-3.465,28.748-7.308,28.748-7.308"/>
					<path style="fill:none;stroke:#263238;stroke-miterlimit:10;" d="M211.496,365.197c0,0,39.158-10.122,52.237-14.233
						c12.026-3.78,28.978-7.441,28.978-7.441"/>
					<path style="fill:none;stroke:#263238;stroke-miterlimit:10;" d="M210.686,373.418c0,0,38.461-10.083,52.63-14.536
						c13.028-4.095,29.207-7.574,29.207-7.574"/>
					<path style="fill:none;stroke:#263238;stroke-miterlimit:10;" d="M209.877,381.639c0,0,37.765-10.044,53.024-14.839
						c14.03-4.41,29.436-7.706,29.436-7.706"/>
					<path style="fill:none;stroke:#263238;stroke-miterlimit:10;" d="M209.067,389.86c0,0,37.068-10.004,53.417-15.143
						c15.033-4.724,29.666-7.839,29.666-7.839"/>
					<path style="fill:none;stroke:#263238;stroke-miterlimit:10;" d="M208.258,398.081c0,0,36.372-9.965,53.811-15.446
						c16.035-5.039,29.895-7.972,29.895-7.972"/>
				</g>
				<g>
					<path style="fill:none;stroke:#263238;stroke-miterlimit:10;" d="M305.416,247.112c0,0,68.758-21.923,78.723-10.962"/>
					<path style="fill:none;stroke:#263238;stroke-miterlimit:10;" d="M305.198,255.084c0,0,23.334-7.519,44.333-11.472
						c16.018-2.98,30.69-3.616,34.639,0.728"/>
					<path style="fill:none;stroke:#263238;stroke-miterlimit:10;" d="M304.98,263.056c0,0,23.757-7.734,44.467-11.571
						c16.444-2.98,31.069-3.01,34.755,1.045"/>
					<path style="fill:none;stroke:#263238;stroke-miterlimit:10;" d="M304.762,271.028c0,0,24.17-8.003,44.6-11.67
						c16.863-3.027,31.448-2.403,34.87,1.362"/>
					<path style="fill:none;stroke:#263238;stroke-miterlimit:10;" d="M304.544,279c0,0,24.591-8.228,44.734-11.768
						c17.289-3.039,31.826-1.797,34.986,1.679"/>
					<path style="fill:none;stroke:#263238;stroke-miterlimit:10;" d="M304.326,286.971c0,0,25.012-8.45,44.868-11.867
						c17.714-3.048,32.205-1.19,35.101,1.996"/>
					<path style="fill:none;stroke:#263238;stroke-miterlimit:10;" d="M304.108,294.944c0,0,25.435-8.67,45.001-11.966
						c18.14-3.056,32.584-0.584,35.217,2.313"/>
					<path style="fill:none;stroke:#263238;stroke-miterlimit:10;" d="M303.89,302.915c0,0,25.857-8.886,45.135-12.065
						c18.566-3.062,32.963,0.023,35.332,2.629"/>
					<path style="fill:none;stroke:#263238;stroke-miterlimit:10;" d="M303.672,310.887c0,0,26.281-9.1,45.268-12.164
						c18.993-3.065,33.341,0.629,35.448,2.946"/>
					<path style="fill:none;stroke:#263238;stroke-miterlimit:10;" d="M303.454,318.859c0,0,26.704-9.311,45.402-12.263
						c19.42-3.066,33.72,1.236,35.563,3.263"/>
					<path style="fill:none;stroke:#263238;stroke-miterlimit:10;" d="M303.236,326.831c0,0,27.128-9.52,45.535-12.361
						c19.848-3.064,34.099,1.842,35.679,3.58"/>
					<path style="fill:none;stroke:#263238;stroke-miterlimit:10;" d="M303.018,334.803c0,0,27.552-9.727,45.669-12.46
						c20.276-3.059,34.478,2.448,35.794,3.897"/>
					<path style="fill:none;stroke:#263238;stroke-miterlimit:10;" d="M302.8,342.775c0,0,27.977-9.932,45.803-12.559
						c20.704-3.052,34.857,3.055,35.91,4.214"/>
					<path style="fill:none;stroke:#263238;stroke-miterlimit:10;" d="M302.582,350.747c0,0,28.402-10.135,45.936-12.658
						c21.133-3.041,35.236,3.661,36.026,4.53"/>
					<path style="fill:none;stroke:#263238;stroke-miterlimit:10;" d="M302.364,358.719c0,0,28.831-10.305,46.07-12.757
						c21.567-2.988,35.615,4.268,36.141,4.847"/>
					<path style="fill:none;stroke:#263238;stroke-miterlimit:10;" d="M302.146,366.691c0,0,29.254-10.519,46.204-12.856
						c21.994-2.989,35.993,4.874,36.257,5.164"/>
					<path style="fill:none;stroke:#263238;stroke-miterlimit:10;" d="M301.928,374.663c0,0,29.677-10.733,46.337-12.954
						c22.421-2.99,36.372,5.481,36.372,5.481"/>
				</g>
			</g>
		</g>
		<path style="fill:none;stroke:#263238;stroke-miterlimit:10;" d="M466.982,433.66c4.889,1.024,7.943,1.787,7.943,1.787"/>
		<path style="fill:none;stroke:#263238;stroke-miterlimit:10;" d="M391.055,417.298c3.334,3.869,5.102,6.734,5.102,6.734
			s17.832-7.196,39.392-6.562c12.384,0.364,18.472,13.613,27.839,15.459"/>
		<path style="fill:none;stroke:#263238;stroke-miterlimit:10;" d="M380.389,407.216c3.118,2.364,5.81,4.866,8.044,7.197"/>
		<path style="fill:none;stroke:#263238;stroke-miterlimit:10;" d="M320.77,398.446c6.975-1.902,27.902-5.707,46.292,1.268
			c5.04,1.912,9.503,4.602,13.327,7.501"/>
		<path style="fill:none;stroke:#263238;stroke-miterlimit:10;" d="M369.458,405.487c-6.059-2.21-15.113-4.491-27.089-4.776
			c-23.952-0.57-79.841,11.976-79.841,11.976"/>
		<path style="fill:none;stroke:#263238;stroke-miterlimit:10;" d="M378.583,409.835c0,0-1.572-1.096-4.689-2.53"/>
		<g>
			<line style="fill:none;stroke:#263238;stroke-miterlimit:10;" x1="375.071" y1="426.029" x2="223.962" y2="433.294"/>
			<line style="fill:none;stroke:#263238;stroke-miterlimit:10;" x1="389.287" y1="425.346" x2="381.036" y2="425.742"/>
			<line style="fill:none;stroke:#263238;stroke-miterlimit:10;" x1="262.313" y1="440.406" x2="271.122" y2="440.183"/>
			<line style="fill:none;stroke:#263238;stroke-miterlimit:10;" x1="187.399" y1="442.302" x2="257.255" y2="440.534"/>
			<line style="fill:none;stroke:#263238;stroke-miterlimit:10;" x1="360.861" y1="444.678" x2="368.621" y2="444.422"/>
			<line style="fill:none;stroke:#263238;stroke-miterlimit:10;" x1="256.285" y1="448.131" x2="354.635" y2="444.884"/>
			<line style="fill:none;stroke:#263238;stroke-miterlimit:10;" x1="326.703" y1="437.357" x2="306.094" y2="438.063"/>
			<line style="fill:none;stroke:#263238;stroke-miterlimit:10;" x1="383.458" y1="435.414" x2="332.346" y2="437.164"/>
			<line style="fill:none;stroke:#263238;stroke-miterlimit:10;" x1="231.137" y1="448.855" x2="238.268" y2="448.661"/>
			<line style="fill:none;stroke:#263238;stroke-miterlimit:10;" x1="160.375" y1="450.78" x2="226.688" y2="448.976"/>
		</g>
	</g>
</g>
<g id="Glasses">
	<g>
		<path style="fill:#263238;stroke:#263238;stroke-miterlimit:10;" d="M279.121,230.294c0,0,14.7-19.331,23.962-27.385
			c9.263-8.055,25.171-20.741,31.614-20.741c6.444,0,8.055,4.027,8.457,5.437c0.403,1.41,5.84,21.747,5.84,22.754
			s-5.638,2.618-6.041,1.41c-0.403-1.208-2.819-18.525-3.826-21.747c-1.007-3.222-0.806-5.034-8.457-1.812
			c-7.652,3.222-30.205,27.386-34.836,33.024c-4.631,5.638-9.061,11.478-9.061,11.478S281.336,230.294,279.121,230.294z"/>
		<path style="fill:#FFFFFF;stroke:#263238;stroke-miterlimit:10;" d="M527.943,249.999c-0.475-0.684-1.1-1.471-1.547-1.583
			c-0.706-0.176-5.431,7.84-6.589,9.827c1.339-1.465,2.159-2.308,2.159-2.175c0,0.604-2.416,12.485-4.631,18.123
			c-2.215,5.638-1.611,8.256,0.604,8.055c2.215-0.201,5.236-10.27,7.048-15.908C526.324,262.179,527.657,254.96,527.943,249.999z"/>
		<path style="fill:#263238;stroke:#263238;stroke-miterlimit:10;" d="M527.806,245.799c-0.806-3.625-6.041,1.007-8.256,4.229
			c-2.215,3.222-12.283,14.095-17.921,19.532c-5.638,5.437-26.781,23.56-28.996,25.171c-2.215,1.611-4.833,4.43-6.444,4.631
			c-1.611,0.201-5.84,0-7.853-1.208c-2.014-1.208-3.02-3.423-12.686-8.659c-9.665-5.235-51.549-17.317-54.57-17.519
			c-3.02-0.201-5.437,2.819-9.665,4.631c-4.229,1.812-11.276,2.215-14.297-0.403c-3.021-2.618-6.645-9.263-8.659-14.095
			s-5.235-6.041-8.055-7.652c-2.819-1.611-36.648-16.512-42.891-18.526c-6.242-2.014-12.485-3.423-15.304-3.625
			c-2.819-0.201-5.437,0.403-5.437,0.403s-0.403,0.604-2.014-0.604s-6.846-3.423-8.457-0.201
			c-1.611,3.222-4.027,10.672-2.618,13.492c1.409,2.819,1.409,2.819,1.409,2.819s-1.409,18.123-0.805,24.365
			c0.604,6.242,5.437,14.297,9.464,19.13c4.027,4.833,20.136,13.894,32.017,16.713c11.88,2.819,19.13,1.208,22.351-1.007
			c3.222-2.215,13.089-13.29,15.505-15.908c2.416-2.618,2.215-4.229,10.068-1.812c7.853,2.416,10.672,8.055,12.082,12.283
			c1.41,4.229,6.645,21.143,10.874,26.58c4.229,5.437,10.27,11.88,20.539,16.311c10.27,4.43,17.116,7.853,26.781,6.645
			c9.665-1.208,14.901-5.638,17.922-10.874c3.02-5.236,5.034-15.707,6.041-18.928s4.229-5.235,4.229-5.235s4.027-1.812,5.235-4.631
			c1.208-2.819,10.672-11.478,10.672-11.478s15.304-12.082,21.143-18.727c5.84-6.645,22.754-26.177,22.754-25.573
			c0,0.604-2.416,12.485-4.631,18.123c-2.215,5.638-1.611,8.256,0.604,8.055c2.215-0.201,5.236-10.27,7.048-15.908
			C526.799,260.7,528.612,249.423,527.806,245.799z M356.646,279.024c0,0-0.403,1.611-1.611,3.423
			c-1.208,1.812-9.263,14.7-14.297,18.727c-5.034,4.027-10.874,7.451-16.915,6.846c-6.041-0.604-21.546-6.444-33.024-15.505
			c-11.478-9.061-13.089-20.942-11.881-32.42c1.208-11.478,5.236-19.331,11.276-20.539c6.041-1.208,25.976,3.826,39.669,11.075
			c13.693,7.249,25.372,16.109,26.177,19.13C356.848,272.782,356.646,279.024,356.646,279.024z M453.1,320.304
			c-1.208,10.471-3.625,16.512-7.249,21.345s-7.853,7.048-19.13,6.041s-19.734-5.236-27.587-10.874
			c-7.853-5.638-10.471-13.089-13.491-20.137c-3.02-7.048-8.256-21.143-5.236-30.003c3.021-8.86,11.88-6.645,11.88-6.645
			s7.451,1.611,8.055,1.812c0.604,0.201,45.106,13.29,47.119,16.31C449.475,301.174,454.308,309.833,453.1,320.304z"/>
		<path style="fill:none;stroke:#FFFFFF;stroke-miterlimit:10;" d="M353.827,260.901c0,0,1.812,1.208,3.625,6.242
			c1.812,5.034,4.43,13.29,11.679,14.901c7.249,1.611,14.498-4.631,14.498-4.631"/>
		<path style="fill:none;stroke:#FFFFFF;stroke-miterlimit:10;" d="M392.288,276.608c0,0,32.42,8.055,46.716,14.498
			c14.297,6.444,15.707,12.082,16.311,12.485c0.604,0.403,6.645,3.02,9.665,0.805"/>
		<path style="fill:none;stroke:#FFFFFF;stroke-miterlimit:10;" d="M277.309,233.919c0,0,3.625,3.222,6.444,2.416
			c2.819-0.805,6.846-1.611,11.075-0.403c4.229,1.208,19.734,4.631,36.648,12.283c16.915,7.652,20.741,10.874,20.741,10.874"/>
		<path style="fill:none;stroke:#FFFFFF;stroke-miterlimit:10;" d="M277.309,269.157c0,0-0.805,13.29,8.256,21.143"/>
	</g>
</g>
</svg>
