<?xml version="1.0" encoding="utf-8"?>
<!-- Generator: Adobe Illustrator 27.5.0, SVG Export Plug-In . SVG Version: 6.00 Build 0)  -->
<svg version="1.1" xmlns="http://www.w3.org/2000/svg" xmlns:xlink="http://www.w3.org/1999/xlink" x="0px" y="0px"
	 viewBox="0 0 500 500" style="enable-background:new 0 0 500 500;" xml:space="preserve">
<g id="Floor">
	<path id="Floor_00000089560018213563598630000012790944261333660576_" style="fill:#F5F5F5;" d="M98.347,278.604
		c-83.753,48.355-83.751,126.754,0.005,175.109c83.755,48.355,219.548,48.355,303.301,0c83.753-48.355,83.751-126.754-0.005-175.109
		C317.893,230.249,182.1,230.249,98.347,278.604z"/>
</g>
<g id="Plants">
	<g id="Plants_1_">
		<g id="XMLID_1047_">
			<g id="XMLID_00000016047532555728134570000012214407795756843176_">
				<path id="XMLID_1085_" style="fill:#BA68C8;" d="M115.06,393.967l8.216-4.748c0,0,4.89-20.318,2.941-38.6
					c-2.74-25.704-19.66-35.376-26.093-33.159c-6.434,2.217-8.297,9.697,2.349,25.005
					C108.753,351.498,116.469,370.311,115.06,393.967z"/>
			</g>
			<g id="XMLID_00000107561789029438799510000011202710443911869344_" style="opacity:0.65;">
				<path id="XMLID_00000176760673678195975060000005122582842707721089_" style="fill:#FFFFFF;" d="M115.06,393.967l8.216-4.748
					c0,0,4.89-20.318,2.941-38.6c-2.74-25.704-19.66-35.376-26.093-33.159c-6.434,2.217-8.297,9.697,2.349,25.005
					C108.753,351.498,116.469,370.311,115.06,393.967z"/>
			</g>
			<g id="XMLID_1048_">
				<path id="XMLID_1049_" style="fill:#FFFFFF;" d="M118.464,383.985c-0.027-0.001-0.052-0.005-0.078-0.01
					c-0.309-0.059-0.513-0.357-0.453-0.666c4.503-23.708-3.779-50.35-14.035-61.436c-0.213-0.23-0.2-0.592,0.032-0.805
					c0.231-0.211,0.592-0.2,0.805,0.032c10.443,11.288,18.887,38.364,14.317,62.421
					C118.998,383.805,118.743,383.999,118.464,383.985z"/>
			</g>
		</g>
		<g id="XMLID_1183_">
			<g id="XMLID_1044_">
				<path id="XMLID_1046_" style="fill:#BA68C8;" d="M95.927,405.995c-1.227,0.625-6.036-2.259-6.946-2.939
					c-1.558-1.163-2.786-2.76-3.567-4.537c-0.908-2.067-1.053-4.24-0.625-6.455c0.222-1.148,0.603-2.259,0.982-3.366
					c0.373-1.086,0.745-2.173,1.117-3.259c0.368-1.072,0.74-2.181,0.653-3.311c-0.175-2.276-2.103-3.962-3.859-5.421
					c-1.942-1.613-3.943-3.714-3.794-6.436c0.115-2.1,1.301-3.997,2.686-5.58c1.385-1.583,3.004-2.962,4.268-4.643
					c0.91-1.21,1.645-2.649,1.584-4.162c-0.039-0.94-0.382-1.841-0.788-2.69c-0.872-1.821-2.059-3.509-2.626-5.447
					c-0.567-1.938-0.353-4.302,1.202-5.59c1.277-1.057,3.098-1.122,4.744-0.93c1.523,0.178,2.981,0.943,4.28,1.754
					c4.201,2.621,6.41,7.866,10.904,9.947c1.733,0.803,3.664,1.056,5.484,1.637c1.82,0.58,3.652,1.617,4.42,3.366
					c1.514,3.448-1.819,7.435-0.816,11.065c0.888,3.212,3.897,4.576,5.477,7.51c0.691,1.284,0.792,2.732,0.598,4.176
					c-0.33,2.445-0.78,4.229-2.096,6.901c-1.088,2.208-4.15,6.38-4.15,6.38S96.115,405.9,95.927,405.995z"/>
			</g>
			<g id="XMLID_00000096744945403115106880000008699267350103333265_" style="opacity:0.3;">
				<path id="XMLID_00000017501320074041377370000000134957267383465360_" style="fill:#FFFFFF;" d="M95.927,405.995
					c-1.227,0.625-6.036-2.259-6.946-2.939c-1.558-1.163-2.786-2.76-3.567-4.537c-0.908-2.067-1.053-4.24-0.625-6.455
					c0.222-1.148,0.603-2.259,0.982-3.366c0.373-1.086,0.745-2.173,1.117-3.259c0.368-1.072,0.74-2.181,0.653-3.311
					c-0.175-2.276-2.103-3.962-3.859-5.421c-1.942-1.613-3.943-3.714-3.794-6.436c0.115-2.1,1.301-3.997,2.686-5.58
					c1.385-1.583,3.004-2.962,4.268-4.643c0.91-1.21,1.645-2.649,1.584-4.162c-0.039-0.94-0.382-1.841-0.788-2.69
					c-0.872-1.821-2.059-3.509-2.626-5.447c-0.567-1.938-0.353-4.302,1.202-5.59c1.277-1.057,3.098-1.122,4.744-0.93
					c1.523,0.178,2.981,0.943,4.28,1.754c4.201,2.621,6.41,7.866,10.904,9.947c1.733,0.803,3.664,1.056,5.484,1.637
					c1.82,0.58,3.652,1.617,4.42,3.366c1.514,3.448-1.819,7.435-0.816,11.065c0.888,3.212,3.897,4.576,5.477,7.51
					c0.691,1.284,0.792,2.732,0.598,4.176c-0.33,2.445-0.78,4.229-2.096,6.901c-1.088,2.208-4.15,6.38-4.15,6.38
					S96.115,405.9,95.927,405.995z"/>
			</g>
			<g id="XMLID_1186_">
				<path id="XMLID_00000088110240148185522860000000928962073810347693_" style="fill:#FFFFFF;" d="M106.275,399.707
					c-0.007,0-0.015-0.001-0.015-0.001c-0.304-0.028-0.522-0.291-0.495-0.587c1.967-21.324-6.912-45.423-13.888-52.647
					c-0.206-0.214-0.201-0.555,0.013-0.762c0.215-0.206,0.555-0.2,0.762,0.013c7.116,7.368,16.18,31.87,14.187,53.494
					C106.812,399.507,106.562,399.721,106.275,399.707z"/>
			</g>
			<g id="XMLID_1184_">
				<path id="XMLID_1185_" style="fill:#FFFFFF;" d="M104.157,373.414c-0.052-0.003-0.106-0.013-0.158-0.032
					c-6.758-2.469-15.297-3.274-15.381-3.282c-0.297-0.028-0.514-0.29-0.488-0.586c0.028-0.296,0.264-0.519,0.586-0.488
					c0.087,0.009,8.76,0.826,15.652,3.344c0.28,0.102,0.424,0.411,0.321,0.691C104.607,373.288,104.387,373.425,104.157,373.414z"/>
			</g>
		</g>
	</g>
	<g id="Plants_00000056396546491214091740000006627246613077928336_">
		<g id="XMLID_00000045590709977568564470000011968448329950490534_">
			<path style="fill:#BA68C8;" d="M371.267,391.931l12.525,7.231c-0.167-4.47-0.556-11.119,0.061-15.594
				c3.782-27.376,14.446-36.402,19.518-49.726c5.34-14.032-1.173-18.547-9.633-16.024c-7.544,2.25-18.461,13.415-21.9,33.843
				C369.553,365.253,369.958,380.013,371.267,391.931z"/>
			<path style="opacity:0.65;fill:#FFFFFF;" d="M371.267,391.931l12.525,7.231c-0.167-4.47-0.556-11.119,0.061-15.594
				c3.782-27.376,14.446-36.402,19.518-49.726c5.34-14.032-1.173-18.547-9.633-16.024c-7.544,2.25-18.461,13.415-21.9,33.843
				C369.553,365.253,369.958,380.013,371.267,391.931z"/>
			<g id="XMLID_00000029005332805056235440000016729777630228608909_">
				<path style="fill:#FFFFFF;" d="M377.907,395.764l1.254,0.723c-4.48-31.917,6.432-59.596,17.202-71.029
					c0.207-0.217,0.197-0.566-0.02-0.774c-0.228-0.207-0.571-0.197-0.779,0.02C384.799,336.143,373.892,364.009,377.907,395.764z"/>
			</g>
		</g>
		<g id="XMLID_00000162337323901133543630000013609944592777736894_">
			<path style="fill:#BA68C8;" d="M380.273,397.129l7.049,4.07h0.005c3.747-11.033,7.595-15.453,12.373-22.709
				c4.354-6.604,9.415-10.694,12.105-15.336c2.382-4.111,4.172-9.274,0.632-12.399c-5.633-4.976-12.985,0.288-18.042,5.977
				C390.027,361.653,381.239,374.739,380.273,397.129z"/>
			<path style="opacity:0.3;fill:#FFFFFF;" d="M380.273,397.129l7.049,4.07h0.005c3.747-11.033,7.595-15.453,12.373-22.709
				c4.354-6.604,9.415-10.694,12.105-15.336c2.382-4.111,4.172-9.274,0.632-12.399c-5.633-4.976-12.985,0.288-18.042,5.977
				C390.027,361.653,381.239,374.739,380.273,397.129z"/>
			<g id="XMLID_00000085971169075221850650000018000725210271740841_">
				<path style="fill:#FFFFFF;" d="M383.166,398.798l1.026,0.597c2.958-17.45,14.811-37.641,22.178-42.409
					c0.258-0.167,0.334-0.516,0.162-0.779c-0.167-0.263-0.511-0.339-0.774-0.167C398.133,360.985,386.306,381.08,383.166,398.798z"
					/>
			</g>
		</g>
	</g>
</g>
<g id="Shadows">
	
		<ellipse id="Shadow_00000058584581148304501300000008007075023411612297_" style="fill:#E0E0E0;" cx="156.729" cy="414.532" rx="62.967" ry="36.354"/>
	
		<ellipse id="Shadow_00000116236154481527928550000009550022623772797364_" style="fill:#E0E0E0;" cx="335.389" cy="416.091" rx="60.267" ry="34.795"/>
</g>
<g id="Clouds">
	<path id="Cloud_3_" style="fill:#F0F0F0;" d="M173.862,116.421c-0.92-0.417-2.015-0.456-2.806-0.518
		c-0.909-0.072-1.196-0.252-1.371-0.449c-2.21-3.162-5.862-3.283-8.043-2.377c-0.535-2.176-3.166-4.064-6.065-3.428
		c0.099-2.827-3.51-5.865-6.754-6.555c-3.11-0.662-5.822-0.384-7.597,1.661c-1.9-3.71-9.347-4.755-13.377-2.793
		c-2.318,1.129-4.284,2.287-5.244,4.411c-0.634,1.402-0.861,2.335-0.873,4.222c-1.571-1.384-4.715-1.759-6.813-0.947
		c-2.261,0.875-2.433,2.579-2.545,4.313c-2.217-0.559-3.701-0.197-4.117-0.074c-1.425,0.422-2.246,1.541-2.051,2.445
		c-1.127-0.063-3.813,0.848-3.504,2.039c0.347,1.336,3.414,1.201,4.559,1.159c0.948-0.035,2.177-0.289,3.207-0.504
		c0.313,0.155,1.145,0.321,1.668,0.317c1.953-0.014,2.78-0.851,3.093-1.578c0.953,2.007,4.345,3.536,6.743,4.15
		c4.515,1.156,10.905,0.451,13.685-2.924c0.292,0.607,0.78,1.173,1.345,1.639c1.104,0.909,2.593,1.545,4.178,1.693
		c1.854,0.173,6.831,0.411,8.233-2.537c0.993,1.96,5.423,2.853,8.792,2.375c1.26-0.179,2.674-0.616,3.772-1.139
		c0.885-0.421,1.388-0.832,2.169-1.3c0.664-0.399,0.963-0.394,1.849-0.127c2.312,0.697,4.996,0.982,7.356-0.008
		C175.235,118.798,175.628,117.221,173.862,116.421z"/>
	<path id="Cloud_4_" style="fill:#F5F5F5;" d="M104.403,165.981c-0.87-0.395-1.906-0.431-2.654-0.49
		c-0.859-0.068-1.131-0.238-1.297-0.424c-2.09-2.99-5.543-3.105-7.605-2.247c-0.505-2.057-2.994-3.843-5.735-3.242
		c0.094-2.673-3.32-5.546-6.386-6.199c-2.941-0.626-5.505-0.363-7.183,1.571c-1.797-3.508-8.839-4.497-12.649-2.641
		c-2.191,1.067-4.05,2.162-4.959,4.171c-0.6,1.326-0.814,2.208-0.825,3.992c-1.485-1.309-4.459-1.663-6.442-0.896
		c-2.139,0.827-2.301,2.439-2.407,4.079c-2.096-0.529-3.5-0.187-3.893-0.07c-1.347,0.399-2.124,1.457-1.939,2.312
		c-1.066-0.06-3.605,0.802-3.314,1.928c0.328,1.263,3.228,1.136,4.311,1.096c0.897-0.033,2.058-0.273,3.032-0.476
		c0.296,0.146,1.082,0.303,1.577,0.299c1.847-0.013,2.629-0.804,2.925-1.492c0.901,1.898,4.109,3.344,6.376,3.924
		c4.27,1.093,10.312,0.427,12.941-2.764c0.276,0.574,0.737,1.109,1.272,1.549c1.044,0.859,2.452,1.461,3.951,1.601
		c1.753,0.164,6.459,0.389,7.785-2.399c0.939,1.854,5.128,2.698,8.314,2.246c1.192-0.169,2.529-0.583,3.567-1.077
		c0.837-0.398,1.313-0.787,2.051-1.23c0.628-0.377,0.911-0.372,1.748-0.12c2.187,0.659,4.724,0.928,6.956-0.007
		C105.701,168.229,106.073,166.738,104.403,165.981z"/>
	<path id="Cloud_00000038378981637238519720000008881179917408928642_" style="fill:#F5F5F5;" d="M429.632,61.568
		c-0.87-0.394-1.906-0.431-2.654-0.49c-0.859-0.068-1.131-0.238-1.297-0.424c-2.09-2.99-5.543-3.105-7.605-2.247
		c-0.505-2.058-2.994-3.843-5.735-3.242c0.094-2.673-3.319-5.546-6.386-6.199c-2.941-0.626-5.505-0.363-7.184,1.571
		c-1.796-3.508-8.839-4.497-12.649-2.641c-2.191,1.067-4.051,2.163-4.959,4.171c-0.6,1.326-0.814,2.208-0.825,3.992
		c-1.485-1.309-4.459-1.663-6.442-0.896c-2.138,0.827-2.301,2.439-2.406,4.079c-2.096-0.529-3.5-0.187-3.893-0.07
		c-1.347,0.399-2.124,1.457-1.939,2.312c-1.066-0.06-3.605,0.802-3.314,1.928c0.328,1.263,3.228,1.136,4.311,1.096
		c0.897-0.033,2.058-0.273,3.032-0.476c0.296,0.146,1.082,0.303,1.577,0.3c1.847-0.013,2.629-0.804,2.925-1.492
		c0.901,1.898,4.109,3.344,6.376,3.924c4.27,1.093,10.312,0.427,12.941-2.764c0.276,0.574,0.737,1.109,1.272,1.549
		c1.044,0.859,2.452,1.461,3.951,1.601c1.753,0.164,6.459,0.389,7.785-2.399c0.939,1.854,5.128,2.698,8.314,2.246
		c1.192-0.169,2.529-0.583,3.567-1.077c0.837-0.398,1.312-0.787,2.051-1.23c0.628-0.377,0.911-0.372,1.748-0.12
		c2.187,0.659,4.724,0.929,6.956-0.007C430.931,63.816,431.302,62.325,429.632,61.568z"/>
</g>
<g id="Question_Marks">
	<g id="Question_Mark_00000181072065508443561540000010275464513597792663_">
		<g>
			<path style="fill:#E0E0E0;" d="M444.411,283.112c-0.7,0-1.404-0.129-2.098-0.384c-0.775-0.283-1.463-0.697-2.045-1.229
				c-0.582-0.533-1.034-1.145-1.345-1.816c-0.311-0.672-0.486-1.405-0.52-2.18c-0.034-0.775,0.093-1.564,0.379-2.341l0,0
				c0.276-0.754,0.686-1.431,1.217-2.011c0.533-0.582,1.144-1.034,1.815-1.345c0.671-0.31,1.41-0.488,2.198-0.53
				c0.795-0.042,1.592,0.082,2.37,0.368c0.779,0.286,1.462,0.706,2.03,1.249c0.56,0.536,1.007,1.147,1.327,1.817
				c0.322,0.677,0.507,1.42,0.549,2.209c0.042,0.794-0.077,1.58-0.356,2.336c-0.286,0.78-0.706,1.463-1.249,2.03
				c-0.541,0.564-1.159,1.005-1.84,1.31c-0.68,0.305-1.417,0.477-2.189,0.511C444.574,283.111,444.492,283.112,444.411,283.112z
				 M439.863,275.558c-0.232,0.634-0.336,1.271-0.309,1.895c0.026,0.623,0.166,1.211,0.414,1.746
				c0.246,0.533,0.608,1.021,1.077,1.45c0.471,0.431,1.03,0.767,1.664,0.998c0.631,0.232,1.264,0.336,1.895,0.31
				c0.626-0.028,1.222-0.166,1.769-0.411c0.544-0.244,1.042-0.6,1.479-1.056c0.433-0.452,0.77-1.001,1.001-1.631
				c0.223-0.609,0.319-1.241,0.285-1.879c-0.033-0.638-0.181-1.234-0.438-1.774c-0.26-0.542-0.625-1.041-1.084-1.48
				c-0.459-0.439-0.993-0.766-1.631-1.001c-0.631-0.231-1.268-0.337-1.913-0.298c-0.641,0.034-1.238,0.177-1.775,0.425
				c-0.531,0.246-1.02,0.608-1.448,1.077C440.421,274.397,440.089,274.946,439.863,275.558L439.863,275.558z M450.913,270.287
				l-6.567-2.41l1.552-6.128c0.271-1.192,0.823-2.162,1.636-2.869c0.765-0.668,1.668-1.215,2.684-1.626
				c0.971-0.393,2.04-0.742,3.177-1.034c1.082-0.277,2.141-0.632,3.146-1.053c0.983-0.411,1.888-0.957,2.689-1.623
				c0.768-0.64,1.369-1.54,1.786-2.677c0.262-0.715,0.364-1.407,0.305-2.057c-0.059-0.657-0.253-1.281-0.576-1.856
				c-0.325-0.579-0.791-1.111-1.383-1.58c-0.601-0.475-1.313-0.866-2.116-1.161c-1.2-0.441-2.272-0.686-3.188-0.727
				c-0.939-0.043-1.761-0.007-2.45,0.106c-0.72,0.117-1.336,0.236-1.85,0.355c-0.638,0.15-1.165,0.144-1.61-0.019
				c-0.995-0.366-1.595-1.089-1.734-2.093l-0.999-4.655l0.457-0.178c1.009-0.393,2.1-0.732,3.245-1.008
				c1.145-0.275,2.352-0.446,3.588-0.509c1.235-0.064,2.545,0.005,3.887,0.203c1.348,0.198,2.764,0.567,4.21,1.098
				c1.978,0.726,3.706,1.676,5.138,2.823c1.442,1.157,2.58,2.484,3.38,3.944c0.805,1.467,1.271,3.073,1.384,4.774
				c0.111,1.7-0.166,3.471-0.825,5.264c-0.641,1.747-1.464,3.189-2.446,4.288c-0.973,1.089-2.028,1.979-3.137,2.646
				c-1.099,0.661-2.244,1.177-3.404,1.533l-3.165,0.969c-0.962,0.293-1.827,0.617-2.572,0.962c-0.664,0.308-1.14,0.731-1.454,1.296
				L450.913,270.287z M445.717,267.154l4.669,1.713l2.306-4.143c0.431-0.773,1.096-1.373,1.976-1.78
				c0.794-0.367,1.709-0.71,2.721-1.019l3.163-0.969c1.07-0.328,2.13-0.806,3.148-1.418c1.011-0.607,1.977-1.424,2.872-2.427
				c0.886-0.989,1.634-2.308,2.225-3.917c0.603-1.642,0.857-3.253,0.757-4.792c-0.103-1.532-0.521-2.978-1.245-4.297
				c-0.727-1.327-1.767-2.538-3.091-3.599c-1.334-1.069-2.953-1.958-4.813-2.641c-1.372-0.504-2.712-0.854-3.981-1.04
				c-1.267-0.186-2.498-0.251-3.66-0.192c-1.166,0.059-2.302,0.221-3.377,0.479c-0.923,0.223-1.809,0.488-2.639,0.79l0.799,3.732
				c0.088,0.621,0.403,0.993,0.998,1.211c0.222,0.082,0.552,0.075,0.952-0.021c0.535-0.124,1.177-0.248,1.926-0.371
				c0.769-0.125,1.672-0.165,2.689-0.12c1.032,0.047,2.221,0.315,3.531,0.796c0.919,0.337,1.737,0.788,2.435,1.339
				c0.71,0.563,1.273,1.208,1.672,1.919c0.403,0.718,0.646,1.498,0.719,2.317c0.076,0.82-0.049,1.682-0.371,2.558
				c-0.487,1.33-1.204,2.395-2.13,3.165c-0.89,0.74-1.893,1.346-2.982,1.801c-1.056,0.442-2.168,0.814-3.304,1.105
				c-1.087,0.279-2.106,0.611-3.03,0.986c-0.897,0.363-1.691,0.843-2.359,1.426c-0.625,0.545-1.054,1.309-1.273,2.271
				L445.717,267.154z"/>
		</g>
	</g>
	<g id="Question_Mark_00000122684502680517028900000017482160521090292135_">
		<g>
			<path style="fill:#E0E0E0;" d="M71.507,268.615c-0.23,0-0.462-0.003-0.694-0.01c-1.519-0.043-3.109-0.252-4.729-0.621
				c-1.631-0.372-3.327-0.96-5.041-1.747c-2.348-1.077-4.368-2.403-6.004-3.939c-1.647-1.55-2.906-3.275-3.741-5.129
				c-0.84-1.864-1.253-3.864-1.228-5.944c0.025-2.077,0.533-4.208,1.508-6.333c0.95-2.07,2.091-3.749,3.392-4.992
				c1.292-1.236,2.663-2.22,4.076-2.925c1.406-0.701,2.853-1.22,4.301-1.543l3.982-0.886c1.215-0.268,2.314-0.584,3.271-0.938
				c0.873-0.324,1.52-0.816,1.977-1.504l3.841-5.782l7.621,3.498l-2.459,7.265c-0.441,1.414-1.196,2.53-2.239,3.303
				c-0.993,0.737-2.142,1.315-3.414,1.718c-1.231,0.391-2.573,0.713-3.987,0.96c-1.365,0.238-2.706,0.573-3.983,0.995
				c-1.261,0.415-2.437,1.005-3.496,1.753c-1.023,0.723-1.863,1.79-2.497,3.17c-0.4,0.872-0.597,1.73-0.586,2.555
				c0.01,0.834,0.192,1.638,0.542,2.391c0.352,0.759,0.882,1.472,1.576,2.117c0.702,0.65,1.552,1.207,2.523,1.653
				c1.448,0.664,2.756,1.071,3.885,1.212c1.152,0.145,2.179,0.178,3.049,0.107c0.881-0.074,1.66-0.161,2.315-0.26
				c0.772-0.117,1.396-0.063,1.901,0.169c1.14,0.522,1.78,1.431,1.851,2.624l0.765,5.712l-0.47,0.142
				c-1.274,0.385-2.644,0.695-4.066,0.922C74.042,268.518,72.788,268.615,71.507,268.615z M76.829,227.779l-3.296,4.962
				c-0.588,0.886-1.44,1.541-2.535,1.946c-1.005,0.373-2.156,0.704-3.423,0.983l-3.979,0.886c-1.357,0.302-2.716,0.79-4.038,1.449
				c-1.31,0.653-2.586,1.571-3.795,2.727c-1.194,1.142-2.251,2.703-3.14,4.64c-0.907,1.978-1.38,3.952-1.404,5.867
				c-0.022,1.911,0.357,3.747,1.127,5.458c0.772,1.715,1.943,3.317,3.48,4.762c1.544,1.451,3.461,2.707,5.695,3.733
				c1.643,0.755,3.263,1.316,4.816,1.671c1.547,0.353,3.063,0.553,4.506,0.594c1.452,0.038,2.87-0.051,4.219-0.265
				c1.199-0.191,2.355-0.443,3.446-0.75l-0.638-4.778c-0.051-0.816-0.426-1.339-1.187-1.688c-0.291-0.134-0.709-0.162-1.247-0.077
				c-0.683,0.103-1.487,0.192-2.394,0.268c-0.955,0.079-2.059,0.042-3.287-0.111c-1.245-0.154-2.666-0.595-4.223-1.308
				c-1.083-0.498-2.033-1.122-2.826-1.855c-0.805-0.749-1.423-1.583-1.838-2.478c-0.418-0.901-0.637-1.863-0.647-2.86
				c-0.015-0.995,0.218-2.021,0.689-3.05c0.72-1.567,1.688-2.789,2.88-3.63c1.152-0.814,2.431-1.456,3.8-1.906
				c1.33-0.439,2.726-0.788,4.146-1.035c1.363-0.238,2.654-0.548,3.837-0.923c1.15-0.364,2.186-0.884,3.076-1.545
				c0.843-0.625,1.458-1.545,1.83-2.735l2.13-6.295L76.829,227.779z M85.147,225.472c-0.067,0-0.136-0.001-0.204-0.002
				c-0.96-0.025-1.909-0.25-2.824-0.669c-0.913-0.419-1.696-0.991-2.329-1.698c-0.626-0.701-1.106-1.48-1.43-2.319
				c-0.325-0.846-0.478-1.759-0.453-2.716c0.024-0.961,0.243-1.898,0.649-2.784c0.42-0.914,0.991-1.698,1.698-2.33
				c0.703-0.628,1.491-1.101,2.342-1.406c0.852-0.303,1.761-0.444,2.691-0.408c0.942,0.033,1.88,0.261,2.789,0.678
				c0.909,0.417,1.7,0.982,2.352,1.679c0.649,0.695,1.137,1.474,1.449,2.314c0.312,0.839,0.453,1.74,0.42,2.678
				c-0.032,0.94-0.261,1.878-0.679,2.789l0,0c-0.406,0.885-0.965,1.662-1.66,2.312c-0.697,0.65-1.477,1.138-2.314,1.449
				C86.866,225.327,86.027,225.472,85.147,225.472z M85.022,212.286c-0.709,0-1.394,0.116-2.038,0.346
				c-0.71,0.254-1.37,0.651-1.962,1.18c-0.589,0.526-1.066,1.183-1.419,1.952c-0.342,0.744-0.525,1.528-0.546,2.333
				c-0.021,0.805,0.106,1.569,0.377,2.273c0.273,0.708,0.682,1.37,1.214,1.966c0.526,0.589,1.183,1.066,1.951,1.418
				c0.771,0.354,1.57,0.544,2.373,0.564c0.816,0.019,1.573-0.1,2.271-0.359c0.694-0.258,1.344-0.665,1.93-1.211
				c0.585-0.546,1.056-1.202,1.398-1.95l0,0c0.354-0.771,0.548-1.561,0.575-2.348c0.027-0.788-0.09-1.54-0.349-2.237
				c-0.259-0.696-0.667-1.346-1.212-1.929c-0.548-0.587-1.218-1.064-1.99-1.418c-0.77-0.354-1.56-0.546-2.349-0.574
				C85.172,212.288,85.097,212.286,85.022,212.286z"/>
		</g>
	</g>
	<g id="Question_Mark_00000044881237639851813160000016380902809898645149_">
		<g>
			<path style="fill:#E0E0E0;" d="M453.347,151.364c-0.462,0-0.918-0.042-1.366-0.127c-0.96-0.182-1.834-0.53-2.6-1.035
				c-0.766-0.504-1.428-1.163-1.968-1.957c-0.542-0.796-0.922-1.709-1.128-2.715h-0.001c-0.2-0.978-0.21-1.958-0.028-2.914
				c0.182-0.958,0.529-1.833,1.034-2.599c0.503-0.763,1.166-1.433,1.971-1.992c0.807-0.561,1.728-0.951,2.736-1.158
				c1.008-0.207,2.001-0.21,2.952-0.008c0.94,0.2,1.811,0.553,2.586,1.05c0.781,0.503,1.46,1.165,2.018,1.969
				c0.561,0.808,0.948,1.714,1.149,2.693c0.207,1.009,0.21,2.003,0.009,2.953c-0.201,0.946-0.566,1.814-1.084,2.579
				c-0.52,0.766-1.184,1.427-1.975,1.967c-0.798,0.543-1.711,0.922-2.714,1.129C454.404,151.309,453.872,151.364,453.347,151.364z
				 M447.413,145.299c0.176,0.856,0.495,1.629,0.951,2.298c0.456,0.67,1.011,1.223,1.649,1.644c0.638,0.42,1.371,0.711,2.181,0.864
				c0.811,0.152,1.657,0.142,2.514-0.034c0.853-0.175,1.626-0.496,2.297-0.953c0.671-0.457,1.232-1.016,1.67-1.661
				c0.434-0.642,0.74-1.373,0.91-2.173c0.169-0.794,0.165-1.629-0.01-2.482c-0.17-0.826-0.495-1.588-0.967-2.267
				c-0.473-0.68-1.043-1.237-1.695-1.657c-0.657-0.421-1.399-0.722-2.202-0.893c-0.798-0.169-1.633-0.165-2.482,0.01
				c-0.855,0.175-1.633,0.503-2.311,0.976c-0.685,0.475-1.245,1.041-1.667,1.68c-0.42,0.638-0.711,1.371-0.864,2.179
				C447.234,143.639,447.242,144.47,447.413,145.299L447.413,145.299z M447.372,133.847l-2.369-7.492
				c-0.491-1.437-0.543-2.814-0.151-4.084c0.375-1.214,0.975-2.388,1.781-3.49c0.783-1.072,1.697-2.152,2.716-3.212
				c0.988-1.029,1.896-2.12,2.695-3.243c0.791-1.108,1.407-2.311,1.832-3.577c0.408-1.222,0.457-2.617,0.143-4.146
				c-0.198-0.966-0.558-1.799-1.069-2.476c-0.515-0.686-1.154-1.242-1.903-1.655c-0.754-0.416-1.627-0.684-2.595-0.796
				c-0.979-0.113-2.022-0.059-3.096,0.163c-1.601,0.329-2.932,0.785-3.956,1.356c-1.043,0.582-1.914,1.175-2.59,1.763
				c-0.69,0.6-1.282,1.145-1.76,1.62c-0.565,0.564-1.11,0.896-1.668,1.01c-1.258,0.256-2.331-0.104-3.111-1.044l-4.09-4.255
				l0.295-0.392c0.824-1.095,1.768-2.182,2.806-3.229c1.037-1.048,2.213-2.03,3.496-2.918c1.285-0.887,2.728-1.679,4.29-2.354
				c1.57-0.68,3.329-1.222,5.227-1.612c2.596-0.533,5.071-0.661,7.355-0.382c2.301,0.281,4.388,0.945,6.203,1.973
				c1.824,1.031,3.379,2.434,4.619,4.169c1.238,1.735,2.109,3.805,2.591,6.152c0.47,2.283,0.545,4.363,0.225,6.183
				c-0.319,1.804-0.857,3.449-1.599,4.89c-0.739,1.434-1.621,2.74-2.62,3.883l-2.759,3.149c-0.843,0.959-1.563,1.888-2.14,2.763
				c-0.527,0.8-0.765,1.603-0.725,2.453l0.329,7.103L447.372,133.847z M447.441,98.469c0.388,0,0.769,0.021,1.144,0.065
				c1.117,0.13,2.132,0.443,3.018,0.932c0.892,0.492,1.654,1.155,2.267,1.97c0.614,0.814,1.044,1.803,1.277,2.937
				c0.354,1.73,0.294,3.326-0.18,4.743c-0.461,1.374-1.129,2.68-1.986,3.88c-0.832,1.167-1.775,2.302-2.803,3.372
				c-0.982,1.022-1.863,2.063-2.616,3.094c-0.731,0.999-1.273,2.058-1.611,3.15c-0.318,1.031-0.27,2.17,0.146,3.383l2.06,6.515
				l6.424-1.318l-0.284-6.12c-0.051-1.086,0.257-2.143,0.914-3.14c0.606-0.92,1.358-1.891,2.235-2.889l2.757-3.148
				c0.939-1.073,1.768-2.302,2.464-3.652c0.688-1.338,1.188-2.874,1.488-4.563c0.295-1.675,0.222-3.61-0.218-5.751
				c-0.449-2.188-1.257-4.111-2.401-5.714c-1.142-1.598-2.571-2.888-4.248-3.836c-1.684-0.953-3.627-1.569-5.776-1.832
				c-2.158-0.264-4.511-0.141-6.983,0.367c-1.822,0.374-3.505,0.893-5.003,1.54c-1.493,0.646-2.869,1.401-4.092,2.245
				c-1.225,0.848-2.346,1.784-3.333,2.781c-0.878,0.887-1.686,1.802-2.406,2.724l3.436,3.576c0.542,0.649,1.174,0.858,2.021,0.682
				c0.325-0.067,0.69-0.301,1.086-0.697c0.497-0.495,1.108-1.057,1.817-1.674c0.735-0.64,1.673-1.279,2.785-1.9
				c1.127-0.629,2.568-1.126,4.284-1.479C445.913,98.55,446.689,98.469,447.441,98.469z"/>
		</g>
	</g>
	<g id="Question_Mark">
		<g>
			<path style="fill:#E0E0E0;" d="M72.517,115.976c-1.232,0-2.51-0.096-3.813-0.288c-1.717-0.252-3.521-0.723-5.36-1.399
				c-2.517-0.924-4.716-2.132-6.538-3.592c-1.83-1.469-3.274-3.153-4.288-5.005c-1.021-1.859-1.61-3.895-1.754-6.052
				c-0.142-2.152,0.211-4.398,1.048-6.678c0.814-2.218,1.859-4.049,3.104-5.442c1.237-1.384,2.577-2.514,3.982-3.359
				c1.397-0.838,2.853-1.493,4.327-1.946l4.056-1.242c1.238-0.377,2.354-0.793,3.317-1.239c0.883-0.409,1.516-0.975,1.936-1.729
				l3.501-6.288l8.146,2.992l-1.953,7.709c-0.342,1.498-1.031,2.712-2.045,3.595c-0.968,0.844-2.109,1.535-3.393,2.054
				c-1.244,0.504-2.607,0.948-4.052,1.317c-1.395,0.358-2.758,0.814-4.052,1.356c-1.274,0.533-2.447,1.241-3.486,2.105
				c-1.005,0.835-1.792,2.012-2.338,3.498c-0.345,0.939-0.479,1.849-0.4,2.706c0.078,0.868,0.334,1.689,0.759,2.443
				c0.429,0.763,1.038,1.46,1.812,2.073c0.782,0.619,1.71,1.128,2.756,1.513c1.555,0.571,2.945,0.888,4.132,0.942
				c1.208,0.056,2.276,0.009,3.174-0.138c0.918-0.149,1.718-0.303,2.379-0.457c0.788-0.186,1.432-0.18,1.973,0.019
				c1.215,0.447,1.947,1.329,2.117,2.552l1.253,5.841l-0.457,0.178c-1.289,0.501-2.682,0.934-4.138,1.285
				c-1.455,0.35-2.991,0.568-4.567,0.648C73.279,115.966,72.899,115.976,72.517,115.976z M76.562,73.136l-3.022,5.428
				c-0.534,0.961-1.361,1.706-2.458,2.214c-1.011,0.467-2.177,0.903-3.465,1.296l-4.054,1.241c-1.385,0.426-2.755,1.042-4.072,1.833
				c-1.306,0.785-2.557,1.841-3.716,3.139c-1.148,1.284-2.118,2.99-2.883,5.071c-0.78,2.128-1.11,4.215-0.979,6.205
				c0.133,1.987,0.676,3.863,1.615,5.574c0.941,1.719,2.287,3.287,3.999,4.66c1.724,1.382,3.814,2.529,6.214,3.41
				c1.767,0.649,3.493,1.101,5.132,1.342c1.634,0.24,3.223,0.325,4.724,0.249c1.504-0.077,2.97-0.285,4.355-0.618
				c1.234-0.298,2.42-0.656,3.531-1.065l-1.053-4.919c-0.12-0.85-0.557-1.368-1.381-1.671c-0.319-0.117-0.759-0.11-1.313,0.021
				c-0.688,0.16-1.514,0.318-2.456,0.472c-0.976,0.159-2.124,0.21-3.412,0.151c-1.305-0.06-2.811-0.4-4.476-1.011
				c-1.161-0.427-2.195-0.996-3.074-1.691c-0.892-0.706-1.599-1.517-2.101-2.41c-0.505-0.896-0.809-1.873-0.901-2.903
				c-0.095-1.028,0.062-2.107,0.467-3.207c0.616-1.679,1.519-3.021,2.682-3.987c1.128-0.937,2.398-1.705,3.778-2.281
				c1.344-0.563,2.761-1.038,4.211-1.41c1.395-0.357,2.708-0.784,3.904-1.27c1.165-0.471,2.197-1.095,3.069-1.855
				c0.826-0.72,1.392-1.728,1.682-2.996l1.701-6.717L76.562,73.136z M84.415,70.099c-0.869,0-1.74-0.158-2.594-0.472
				c-0.979-0.359-1.835-0.887-2.546-1.566c-0.703-0.672-1.264-1.439-1.666-2.281c-0.403-0.848-0.635-1.779-0.688-2.77
				c-0.053-0.996,0.098-1.981,0.446-2.93c0.359-0.979,0.886-1.835,1.565-2.545c0.675-0.706,1.451-1.258,2.306-1.642
				c0.854-0.383,1.779-0.598,2.748-0.641c0.988-0.043,1.966,0.118,2.938,0.475c0.975,0.358,1.838,0.877,2.565,1.544
				c0.728,0.666,1.295,1.431,1.686,2.274c0.389,0.84,0.608,1.759,0.651,2.732c0.042,0.974-0.118,1.962-0.477,2.937v0.001
				c-0.348,0.946-0.861,1.795-1.527,2.522c-0.666,0.728-1.431,1.295-2.274,1.685c-0.841,0.389-1.768,0.612-2.757,0.665
				C84.667,70.095,84.541,70.099,84.415,70.099z M84.294,56.398c-0.086,0-0.171,0.001-0.257,0.005
				c-0.822,0.036-1.605,0.218-2.326,0.541c-0.719,0.323-1.373,0.789-1.945,1.388c-0.569,0.595-1.013,1.317-1.317,2.146
				c-0.294,0.801-0.421,1.632-0.376,2.471c0.044,0.839,0.238,1.625,0.576,2.334c0.342,0.714,0.82,1.369,1.423,1.945
				c0.596,0.57,1.317,1.013,2.146,1.317c0.832,0.305,1.678,0.434,2.515,0.393c0.841-0.045,1.627-0.233,2.334-0.56
				c0.703-0.326,1.345-0.803,1.907-1.417c0.564-0.616,1.001-1.337,1.297-2.142l0,0c0.305-0.832,0.441-1.67,0.406-2.49
				c-0.036-0.821-0.22-1.595-0.546-2.299c-0.326-0.704-0.803-1.346-1.418-1.909c-0.617-0.565-1.352-1.007-2.185-1.313
				C85.784,56.536,85.034,56.398,84.294,56.398z"/>
		</g>
	</g>
</g>
<g id="Big_Question_Mark">
	<g id="Question_Mark_00000054951627875693452640000006479489060474217860_">
		<g>
			<path style="fill:#BA68C8;" d="M372.697,370.761c-1.476-5.444-3.478-10.539-5.995-15.276c-2.525-4.742-5.481-9.074-8.865-12.997
				c-3.392-3.928-7.046-7.023-10.986-9.297c-3.938-2.274-7.634-3.422-11.08-3.442c-3.447-0.021-6.402,0.9-8.864,2.761
				c-2.463,1.862-24.898,13.941-27.36,15.802c-2.463,1.862-4.4,4.682-5.814,8.457c-1.414,3.78-2.121,8.217-2.121,13.301
				c0,5.258,0.707,10.544,2.121,15.871c1.414,5.333,3.351,10.349,5.814,15.054c2.462,4.705,5.417,8.995,8.864,12.87
				c3.448,3.875,7.141,6.956,11.082,9.23c3.94,2.274,7.592,3.436,10.984,3.509c3.384,0.069,6.339-0.809,8.865-2.634
				c2.517-1.83,24.834-13.978,27.359-15.802c2.517-1.83,4.519-4.571,5.995-8.235c1.478-3.658,2.217-8.109,2.217-13.367
				C374.914,381.482,374.175,376.21,372.697,370.761z"/>
			<path style="opacity:0.4;fill:#FFFFFF;" d="M372.697,370.761c-1.476-5.444-3.478-10.539-5.995-15.276
				c-2.525-4.742-5.481-9.074-8.865-12.997c-3.392-3.928-7.046-7.023-10.986-9.297c-3.938-2.274-7.634-3.422-11.08-3.442
				c-3.447-0.021-6.402,0.9-8.864,2.761c-2.463,1.862-24.898,13.941-27.36,15.802c-2.463,1.862-4.4,4.682-5.814,8.457
				c-1.414,3.78-2.121,8.217-2.121,13.301c0,5.258,0.707,10.544,2.121,15.871c1.414,5.333,3.351,10.349,5.814,15.054
				c2.462,4.705,5.417,8.995,8.864,12.87c3.448,3.875,7.141,6.956,11.082,9.23c3.94,2.274,7.592,3.436,10.984,3.509
				c3.384,0.069,6.339-0.809,8.865-2.634c2.517-1.83,24.834-13.978,27.359-15.802c2.517-1.83,4.519-4.571,5.995-8.235
				c1.478-3.658,2.217-8.109,2.217-13.367C374.914,381.482,374.175,376.21,372.697,370.761z"/>
		</g>
		<path style="fill:#BA68C8;" d="M421.26,176.372c-3.446-12.327-8.307-23.956-14.591-34.885
			c-6.275-10.925-13.821-20.905-22.614-29.922c-8.801-9.021-18.555-16.622-29.27-22.808c-7.88-4.55-15.203-7.83-21.97-9.852
			c-6.767-2.022-13.05-3.06-18.833-3.121c-5.782-0.05-11.168,0.691-16.155,2.243c-4.981,1.557-9.572,3.582-13.757,6.09
			l-27.359,15.802l12.001,32.288c1.97,6.062,5.171,10.367,9.603,12.926c1.851,1.068,3.94,1.252,6.275,0.546
			c2.343-0.696,5.203-1.344,8.587-1.932c3.385-0.593,7.505-0.506,12.376,0.25c4.86,0.757,10.802,3.16,17.815,7.21
			c4.798,2.77,9.261,6.247,13.383,10.433c4.122,4.191,7.665,8.82,10.62,13.889c2.955,5.068,5.259,10.417,6.918,16.057
			c1.669,5.639,2.495,11.406,2.495,17.316c0,9.193-1.445,16.274-4.336,21.256c-1.133,1.95-2.408,3.688-3.759,5.311
			c-2.432,1.116-4.754,2.335-6.913,3.704c-2.691,1.699-23.364,13.269-27.359,15.802c-4.003,2.528-7.204,6.018-9.603,10.458
			c-2.397,4.44-3.232,10.731-2.493,18.868l3.138,41.939l31.207,18.018l27.36-15.802l4.241-33.496
			c0.349-2.753,1.139-5.066,2.286-7.023c0.311-0.135,0.6-0.26,0.912-0.397c1.501-0.654,2.964-1.416,4.389-2.286
			c3.17-1.935,25.376-14.645,26.541-15.316c3.497-2.012,6.77-4.661,9.821-7.948c4.059-4.381,7.443-10.35,10.151-17.894
			c2.708-7.544,4.058-17.557,4.058-30.033C426.424,201.265,424.7,188.699,421.26,176.372z"/>
		<path style="opacity:0.4;fill:#FFFFFF;" d="M421.26,176.372c-3.446-12.327-8.307-23.956-14.591-34.885
			c-6.275-10.925-13.821-20.905-22.614-29.922c-8.801-9.021-18.555-16.622-29.27-22.808c-7.88-4.55-15.203-7.83-21.97-9.852
			c-6.767-2.022-13.05-3.06-18.833-3.121c-5.782-0.05-11.168,0.691-16.155,2.243c-4.981,1.557-9.572,3.582-13.757,6.09
			l-27.359,15.802l12.001,32.288c1.97,6.062,5.171,10.367,9.603,12.926c1.851,1.068,3.94,1.252,6.275,0.546
			c2.343-0.696,5.203-1.344,8.587-1.932c3.385-0.593,7.505-0.506,12.376,0.25c4.86,0.757,10.802,3.16,17.815,7.21
			c4.798,2.77,9.261,6.247,13.383,10.433c4.122,4.191,7.665,8.82,10.62,13.889c2.955,5.068,5.259,10.417,6.918,16.057
			c1.669,5.639,2.495,11.406,2.495,17.316c0,9.193-1.445,16.274-4.336,21.256c-1.133,1.95-2.408,3.688-3.759,5.311
			c-2.432,1.116-4.754,2.335-6.913,3.704c-2.691,1.699-23.364,13.269-27.359,15.802c-4.003,2.528-7.204,6.018-9.603,10.458
			c-2.397,4.44-3.232,10.731-2.493,18.868l3.138,41.939l31.207,18.018l27.36-15.802l4.241-33.496
			c0.349-2.753,1.139-5.066,2.286-7.023c0.311-0.135,0.6-0.26,0.912-0.397c1.501-0.654,2.964-1.416,4.389-2.286
			c3.17-1.935,25.376-14.645,26.541-15.316c3.497-2.012,6.77-4.661,9.821-7.948c4.059-4.381,7.443-10.35,10.151-17.894
			c2.708-7.544,4.058-17.557,4.058-30.033C426.424,201.265,424.7,188.699,421.26,176.372z"/>
		<g>
			<path style="fill:#FAFAFA;" d="M339.342,371.287c-2.526-4.742-5.481-9.074-8.865-12.998c-3.392-3.928-7.044-7.023-10.984-9.297
				c-3.94-2.274-7.634-3.422-11.082-3.443c-3.447-0.02-6.402,0.9-8.864,2.762c-2.463,1.862-4.4,4.682-5.814,8.457
				c-1.414,3.78-2.121,8.217-2.121,13.301c0,5.258,0.707,10.544,2.121,15.871c1.414,5.333,3.351,10.349,5.814,15.054
				c2.462,4.705,5.417,8.995,8.864,12.87c3.448,3.875,7.141,6.956,11.082,9.23c3.94,2.274,7.592,3.436,10.984,3.509
				c3.384,0.069,6.339-0.809,8.865-2.634c2.517-1.83,4.518-4.572,5.997-8.235c1.477-3.659,2.215-8.109,2.215-13.367
				c0-5.083-0.739-10.355-2.215-15.804C343.861,381.118,341.86,376.024,339.342,371.287z"/>
			<path style="fill:#BA68C8;" d="M308.302,348.328l0.093,0c2.943,0.018,6.21,1.051,9.709,3.07c3.64,2.102,7.096,5.031,10.27,8.706
				c3.234,3.749,6.1,7.95,8.516,12.487c2.411,4.537,4.352,9.483,5.768,14.699c1.406,5.188,2.119,10.261,2.119,15.077
				c0,4.87-0.677,9.018-2.013,12.328c-1.271,3.15-2.971,5.514-5.047,7.023c-1.967,1.421-4.214,2.112-6.871,2.112
				c-0.103,0-0.207-0.001-0.308-0.003c-2.907-0.062-6.155-1.118-9.654-3.137c-3.657-2.111-7.154-5.029-10.395-8.671
				c-3.281-3.69-6.134-7.832-8.478-12.313c-2.355-4.497-4.235-9.368-5.59-14.478c-1.346-5.071-2.028-10.171-2.028-15.158
				c0-4.729,0.654-8.877,1.945-12.326c1.221-3.26,2.866-5.688,4.888-7.216C303.181,349.047,305.496,348.328,308.302,348.328
				 M308.302,345.549c-3.4,0-6.319,0.92-8.754,2.762c-2.463,1.862-4.4,4.683-5.814,8.458c-1.414,3.78-2.121,8.217-2.121,13.301
				c0,5.258,0.707,10.544,2.121,15.871c1.414,5.333,3.351,10.349,5.814,15.054c2.462,4.705,5.417,8.995,8.864,12.87
				c3.448,3.875,7.141,6.956,11.082,9.231c3.94,2.274,7.592,3.436,10.984,3.509c0.123,0.003,0.245,0.004,0.367,0.004
				c3.232,0,6.064-0.879,8.498-2.638c2.517-1.83,4.518-4.572,5.997-8.236c1.477-3.659,2.215-8.109,2.215-13.368
				c0-5.083-0.739-10.355-2.215-15.804c-1.478-5.445-3.479-10.539-5.997-15.276c-2.526-4.742-5.481-9.074-8.865-12.997
				c-3.392-3.928-7.044-7.023-10.984-9.297c-3.94-2.274-7.634-3.422-11.082-3.443C308.375,345.549,308.338,345.549,308.302,345.549
				L308.302,345.549z"/>
		</g>
		<g>
			<path style="fill:#FAFAFA;" d="M393.903,192.174c-3.448-12.327-8.309-23.955-14.592-34.885
				c-6.275-10.925-13.821-20.905-22.614-29.922c-8.801-9.021-18.556-16.622-29.271-22.809c-7.88-4.549-15.203-7.829-21.969-9.851
				c-6.768-2.022-13.052-3.06-18.833-3.121c-5.784-0.05-11.169,0.69-16.156,2.242c-4.981,1.557-9.572,3.582-13.757,6.09
				l12.001,32.288c1.97,6.062,5.171,10.367,9.603,12.926c1.851,1.068,3.94,1.252,6.275,0.546c2.343-0.696,5.203-1.344,8.587-1.932
				c3.385-0.593,7.505-0.506,12.376,0.25c4.86,0.757,10.802,3.16,17.815,7.21c4.798,2.77,9.261,6.247,13.383,10.433
				c4.122,4.191,7.665,8.82,10.62,13.889c2.955,5.068,5.259,10.417,6.918,16.057c1.669,5.639,2.495,11.406,2.495,17.316
				c0,9.193-1.445,16.274-4.336,21.256c-2.891,4.976-6.497,8.889-10.802,11.73c-4.307,2.852-8.929,5.108-13.845,6.781
				c-4.925,1.674-9.388,3.772-13.384,6.306c-4.003,2.528-7.204,6.018-9.603,10.458c-2.397,4.44-3.232,10.731-2.493,18.868
				l3.138,41.939l31.207,18.018l4.243-33.496c0.618-4.89,2.493-8.531,5.63-10.903c3.137-2.372,6.863-4.489,11.175-6.346
				c4.305-1.863,8.89-3.855,13.75-5.973c4.861-2.118,9.324-5.366,13.392-9.748c4.058-4.382,7.443-10.35,10.151-17.894
				c2.708-7.544,4.059-17.556,4.059-30.032C399.065,217.067,397.341,204.502,393.903,192.174z"/>
			<path style="fill:#BA68C8;" d="M286.077,94.363l0.519,0.002c5.509,0.058,11.588,1.069,18.067,3.005
				c6.539,1.954,13.731,5.183,21.375,9.596c10.443,6.029,20.09,13.546,28.671,22.342c8.6,8.819,16.067,18.699,22.194,29.367
				c6.133,10.669,10.953,22.192,14.324,34.247c3.358,12.037,5.06,24.467,5.06,36.945c0,12.105-1.31,21.893-3.895,29.093
				c-2.57,7.159-5.791,12.86-9.572,16.943c-3.786,4.078-7.98,7.136-12.466,9.091c-4.858,2.117-9.441,4.108-13.739,5.968
				c-4.495,1.936-8.449,4.184-11.752,6.682c-3.739,2.827-5.997,7.124-6.711,12.77l-3.717,29.348l-26.315-15.194l-3.032-40.519
				c-0.686-7.54,0.045-13.359,2.17-17.295c2.161-3.999,5.069-7.172,8.647-9.432c3.777-2.395,8.08-4.421,12.791-6.022
				c5.148-1.751,10.022-4.138,14.481-7.092c4.653-3.071,8.58-7.328,11.675-12.655c3.17-5.463,4.711-12.872,4.711-22.651
				c0-6.164-0.878-12.256-2.608-18.1c-1.715-5.829-4.132-11.439-7.183-16.672c-3.053-5.237-6.767-10.094-11.04-14.439
				c-4.275-4.342-8.977-8.005-13.974-10.89c-7.277-4.201-13.594-6.741-18.778-7.549c-2.871-0.446-5.541-0.672-7.936-0.672
				c-1.918,0-3.716,0.145-5.343,0.43c-3.44,0.598-6.436,1.273-8.915,2.01c-0.662,0.2-1.288,0.302-1.862,0.302
				c-0.8,0-1.527-0.195-2.219-0.594c-3.854-2.225-6.585-5.947-8.35-11.379l-0.018-0.055l-0.02-0.054l-11.179-30.078
				c3.428-1.863,7.171-3.434,11.156-4.68C275.813,95.076,280.787,94.363,286.077,94.363 M286.077,91.584
				c-5.577,0-10.779,0.742-15.609,2.245c-4.981,1.557-9.572,3.582-13.757,6.09l12.001,32.288c1.97,6.062,5.171,10.367,9.603,12.926
				c1.116,0.644,2.318,0.966,3.609,0.966c0.85,0,1.738-0.14,2.666-0.42c2.343-0.696,5.203-1.344,8.587-1.932
				c1.481-0.26,3.103-0.389,4.867-0.389c2.267,0,4.77,0.214,7.509,0.639c4.86,0.757,10.802,3.16,17.815,7.21
				c4.798,2.77,9.261,6.247,13.383,10.433c4.122,4.191,7.665,8.82,10.62,13.889c2.955,5.068,5.259,10.417,6.918,16.057
				c1.669,5.639,2.495,11.406,2.495,17.316c0,9.193-1.445,16.274-4.336,21.256c-2.891,4.976-6.497,8.889-10.802,11.73
				c-4.307,2.852-8.929,5.108-13.846,6.781c-4.925,1.674-9.388,3.772-13.384,6.306c-4.003,2.528-7.204,6.018-9.603,10.458
				c-2.397,4.44-3.233,10.731-2.493,18.868l3.138,41.939l31.207,18.018l4.243-33.496c0.618-4.89,2.493-8.531,5.63-10.903
				c3.137-2.372,6.863-4.489,11.175-6.346c4.305-1.863,8.89-3.855,13.75-5.973c4.861-2.118,9.324-5.366,13.392-9.748
				c4.058-4.382,7.443-10.35,10.151-17.894c2.708-7.544,4.059-17.556,4.059-30.032c0-12.799-1.723-25.364-5.162-37.692
				c-3.448-12.327-8.309-23.955-14.592-34.885c-6.275-10.925-13.821-20.905-22.614-29.922c-8.801-9.021-18.556-16.622-29.271-22.809
				c-7.88-4.549-15.203-7.829-21.969-9.851c-6.768-2.022-13.052-3.06-18.833-3.121C286.442,91.585,286.259,91.584,286.077,91.584
				L286.077,91.584z"/>
		</g>
	</g>
</g>
<g id="Character">
	<g id="Character_00000039125584370264235230000010392819677969061250_">
		<g id="Arm_00000168798789998627316390000010797628715009767320_">
			<g>
				<path style="fill:#FFA8A7;" d="M239.552,205.96c-0.615-0.348-1.52-0.078-2.509,0.424c0.503-0.485,0.849-0.924,0.861-1.233
					c0.038-0.923-0.54-1.421-2.358-0.6c-1.818,0.82-6.346,3.1-9.951,3.084c-0.648-0.003-1.947,0.16-2.481-0.276l0,0
					c-0.211-0.172-0.272-0.377-0.241-0.59c0.078-0.53,0.725-1.117,1.048-1.417c0.434-0.403,0.842-0.833,1.221-1.289
					c0.423-0.509,0.816-1.061,1.011-1.693c0.195-0.632,0.167-1.361-0.206-1.908c-0.201-0.294-0.526-0.529-0.845-0.291
					c-1.268,0.944-2.568,1.844-3.84,2.782c-1.207,0.889-2.502,1.762-3.535,2.852c-1.188,1.255-2.152,3.002-3.877,4.741
					c-1.725,1.739-3.569,3.295-7.855,6.132c-2.366,1.566-8.457,5.542-8.457,5.542s-8.594-13.69-11.945-19
					c-5.364-8.5-8.123-10.557-13.576-11.021v23.112c0,0,8.211,11.751,12.554,17.331c5.279,6.784,8.257,8.259,10.369,8.216
					c6.621-0.217,12.223-8.19,22.532-19.639c0.84-0.933,2.838-2.72,5.976-2.714c1.229,0.003,2.609-0.089,3.418-0.127
					c0.98-0.046,2.747-0.398,3.694-0.654c2.001-0.544,2.017-0.393,4.918-2.342c0.358-0.241,1.807-1.333,1.725-1.756
					c-0.07-0.357-0.357-0.542-0.72-0.57c-0.517-0.039-0.932,0.229-1.969,0.494c1.123-0.615,2.728-1.535,3.606-2.872
					c0.132-0.201,0.272-0.523,0.273-0.763c0.001-0.226-0.099-0.868-0.451-1.012c0,0,0.58-0.589,1.092-1.088
					C239.452,207.406,240.328,206.399,239.552,205.96z"/>
				<path style="fill:#F28F8F;" d="M234.515,213.548c-0.919,0.355-1.824,0.667-2.769,0.874c-0.934,0.247-1.896,0.38-2.852,0.632
					c0.987,0.047,1.969-0.068,2.936-0.281C232.784,214.523,233.737,214.166,234.515,213.548z"/>
				<g>
					<path style="fill:#F28F8F;" d="M217.128,214.169c0.029-0.187,0.076-0.372,0.15-0.547c0.142-0.336,0.361-0.653,0.598-0.929
						c0.473-0.551,1.087-0.991,1.756-1.272c1.447-0.607,3.323-0.44,4.568,0.542c0.035,0.027,0.065,0.177-0.014,0.155
						c-1.442-0.404-2.897-0.735-4.346-0.135c-1.198,0.496-2.017,1.638-2.494,2.811c-0.045,0.11-0.161,0.065-0.174-0.039
						C217.145,214.542,217.095,214.388,217.128,214.169z"/>
					<path style="fill:#F28F8F;" d="M227.959,209.878c1.55-0.344,3.087-0.947,4.569-1.515c1.421-0.545,2.808-1.195,4.194-1.82
						c0.017-0.008,0.034,0.033,0.02,0.043c-1.362,0.957-2.83,1.656-4.389,2.238c-1.436,0.536-2.884,0.791-4.38,1.086
						C227.958,209.913,227.946,209.881,227.959,209.878z"/>
					<path style="fill:#F28F8F;" d="M227.812,212.571c1.549-0.345,3.087-0.947,4.568-1.515c0.569-0.218,1.132-0.453,1.691-0.696
						c0.548-0.238,1.115-0.462,1.634-0.756c0.161-0.091,0.321-0.181,0.481-0.272c0.206-0.117,0.393-0.25,0.619-0.33
						c0.231-0.081,0.477-0.121,0.722-0.113c0.023,0.001,0.055,0.017,0.043,0.037c-0.306,0.038-0.599,0.154-0.869,0.304
						c-0.18,0.1-0.352,0.215-0.52,0.334c-0.152,0.108-0.304,0.192-0.463,0.288c-0.491,0.299-0.999,0.571-1.517,0.821
						c-0.651,0.314-1.32,0.592-1.997,0.845c-1.436,0.536-2.884,0.791-4.381,1.086C227.81,212.605,227.798,212.574,227.812,212.571z"
						/>
				</g>
			</g>
			<g>
				<path style="fill:#F28F8F;" d="M197.539,222.218c-3.481,1.75-5.588,5.363-6.146,9.355c-0.505-3.871-0.17-7.901,5.236-10.804
					L197.539,222.218z"/>
			</g>
		</g>
		<g id="Magnifying_Glass">
			<g>
				<g>
					<path style="fill:#455A64;" d="M161.751,282.082c0.029-0.047,0.05-0.1,0.081-0.146l54.622-86.379l0-0.001
						c0.729-1.255,2.278-2.019,4.475-1.993c4.394,0.051,9.716,3.24,11.886,7.122c1.085,1.941,1.177,3.688,0.449,4.943l0,0.001
						l-47.972,90.36c-0.024,0.047-0.057,0.089-0.083,0.135c-0.045,0.08-0.079,0.164-0.126,0.244
						c-3.803,6.552-12.142,8.715-18.624,4.83c-6.482-3.884-8.654-12.344-4.851-18.896
						C161.652,282.226,161.705,282.158,161.751,282.082z"/>
					<path style="fill:#263238;" d="M232.815,200.686c2.171,3.882,0.368,6.987-4.027,6.936c-4.394-0.051-9.716-3.24-11.886-7.122
						c-2.171-3.882-0.368-6.987,4.026-6.936C225.323,193.615,230.644,196.803,232.815,200.686z"/>
					<path style="fill:#37474F;" d="M179.661,288.514l44.928-81.767c1.409,0.537,2.845,0.852,4.196,0.878
						c2.187,0.021,3.726-0.717,4.464-1.971l-47.959,90.335c-0.024,0.047-0.057,0.089-0.083,0.135
						c-0.045,0.08-0.079,0.164-0.126,0.244c-3.803,6.552-12.142,8.715-18.624,4.83C170.653,302.439,175.274,296.572,179.661,288.514
						z"/>
				</g>
				<path style="fill:#E0E0E0;" d="M238.338,169c2.657,0.031,5.875,1.959,7.187,4.306c0.656,1.174,0.712,2.23,0.271,2.989
					l0.002,0.001l-15.855,27.342l-0.002-0.001c-0.441,0.759-1.377,1.221-2.706,1.205c-2.657-0.031-5.875-1.959-7.187-4.306
					c-0.656-1.174-0.712-2.23-0.271-2.989l15.855-27.342l0,0C236.073,169.446,237.01,168.984,238.338,169z"/>
				<path style="opacity:0.25;" d="M236.442,192.432l5.005-8.632c-2.998-2.605-5.92-5.463-8.753-8.529l-5.136,8.856
					C230.422,187.085,233.389,189.862,236.442,192.432z"/>
			</g>
			<g>
				<g>
					<path style="fill:#BA68C8;" d="M193.064,91.449c0.098,39.522,27.967,87.519,62.242,107.19
						c9.966,5.724,19.373,8.417,27.701,8.397c6.005-0.015,11.445-1.436,16.133-4.165l19.954-11.586
						c11.205-6.505,18.111-20.402,18.061-40.167c-0.098-39.532-27.967-87.519-62.242-107.199
						c-17.142-9.83-32.638-10.727-43.834-4.232l-19.993,11.616C199.911,57.806,193.015,71.703,193.064,91.449z M222.871,79.838
						c-0.023-9.371,1.69-17.112,4.895-22.869c6.674,0.092,14.368,2.533,22.284,7.081c15.102,8.674,29.423,23.788,40.327,42.562
						s16.929,38.702,16.972,56.115c0.023,9.381-1.69,17.122-4.904,22.869c-6.674-0.092-14.358-2.543-22.274-7.081
						c-15.102-8.674-29.423-23.788-40.327-42.562C228.939,117.179,222.915,97.251,222.871,79.838z"/>
					<path style="opacity:0.1;fill:#FFFFFF;" d="M307.658,73.457L279.12,90.029c4.037,5.106,7.817,10.661,11.257,16.583
						c0.672,1.157,1.325,2.319,1.96,3.484l28.477-16.536C316.958,86.503,312.529,79.735,307.658,73.457z M263.601,73.735
						c2.953,2.536,5.837,5.311,8.633,8.295l28.659-16.642c-2.697-2.979-5.496-5.801-8.384-8.439L263.601,73.735z"/>
					<path style="opacity:0.25;" d="M299.219,202.821l19.875-11.537c11.205-6.505,18.111-20.402,18.061-40.167
						c-0.002-0.758-0.033-1.516-0.055-2.284l-19.944,11.586c0.022,0.768,0.033,1.526,0.035,2.284
						C317.242,182.41,310.366,196.296,299.219,202.821z"/>
				</g>
				<path style="fill:#BA68C8;" d="M202.908,91.424c0.043,17.413,6.068,37.351,16.972,56.125
					c10.904,18.774,25.225,33.888,40.327,42.552c8.113,4.655,15.984,7.107,22.776,7.09c8.643-0.021,15.306-4.133,19.461-11.595
					c-6.674-0.092-14.358-2.543-22.274-7.081c-15.102-8.674-29.423-23.788-40.327-42.562
					c-10.904-18.774-16.929-38.702-16.972-56.116c-0.023-9.371,1.69-17.112,4.895-22.869c-0.167-0.009-0.335-0.009-0.492-0.009
					C211.957,56.999,202.855,69.887,202.908,91.424z"/>
				<path style="opacity:0.25;" d="M202.908,91.424c0.043,17.413,6.068,37.351,16.972,56.125
					c10.904,18.774,25.225,33.888,40.327,42.552c8.113,4.655,15.984,7.107,22.776,7.09c8.643-0.021,15.306-4.133,19.461-11.595
					c-6.674-0.092-14.358-2.543-22.274-7.081c-15.102-8.674-29.423-23.788-40.327-42.562
					c-10.904-18.774-16.929-38.702-16.972-56.116c-0.023-9.371,1.69-17.112,4.895-22.869c-0.167-0.009-0.335-0.009-0.492-0.009
					C211.957,56.999,202.855,69.887,202.908,91.424z"/>
				<path style="opacity:0.3;fill:#FFFFFF;" d="M212.197,86.056c0.043,17.413,6.068,37.351,16.972,56.125
					c10.904,18.774,25.225,33.888,40.327,42.552c8.113,4.656,15.984,7.107,22.776,7.09c2.166-0.005,4.193-0.266,6.101-0.773h0.01
					c1.541-1.549,2.895-3.374,4.062-5.454c3.214-5.747,4.928-13.488,4.904-22.869c-0.043-17.413-6.068-37.341-16.972-56.115
					S265.152,72.724,250.05,64.05c-7.916-4.548-15.61-6.99-22.284-7.081c-0.167-0.009-0.335-0.009-0.492-0.009
					c-2.175,0.005-4.222,0.266-6.131,0.793C215.35,63.566,212.165,73.289,212.197,86.056z"/>
				<g>
					<path style="fill:#BA68C8;" d="M193.063,91.45c0.098,39.524,27.966,87.516,62.244,107.192
						c34.278,19.677,61.986,3.587,61.888-35.937S289.228,75.19,254.95,55.514C220.672,35.837,192.964,51.926,193.063,91.45z
						 M219.88,147.55c-10.904-18.774-16.929-38.712-16.972-56.125c-0.054-21.538,9.049-34.426,24.366-34.464
						c0.158,0,0.325-0.001,0.492,0.009c6.674,0.092,14.368,2.533,22.284,7.081c15.102,8.674,29.423,23.788,40.327,42.562
						s16.929,38.702,16.972,56.115c0.023,9.381-1.69,17.122-4.904,22.869c-4.155,7.462-10.819,11.574-19.461,11.595
						c-6.792,0.017-14.663-2.434-22.776-7.09C245.105,181.438,230.785,166.324,219.88,147.55z"/>
					<g style="opacity:0.3;">
						<path style="fill:#FFFFFF;" d="M193.063,91.45c0.098,39.524,27.966,87.516,62.244,107.192
							c34.278,19.677,61.986,3.587,61.888-35.937S289.228,75.19,254.95,55.514C220.672,35.837,192.964,51.926,193.063,91.45z
							 M219.88,147.55c-10.904-18.774-16.929-38.712-16.972-56.125c-0.054-21.538,9.049-34.426,24.366-34.464
							c0.158,0,0.325-0.001,0.492,0.009c6.674,0.092,14.368,2.533,22.284,7.081c15.102,8.674,29.423,23.788,40.327,42.562
							s16.929,38.702,16.972,56.115c0.023,9.381-1.69,17.122-4.904,22.869c-4.155,7.462-10.819,11.574-19.461,11.595
							c-6.792,0.017-14.663-2.434-22.776-7.09C245.105,181.438,230.785,166.324,219.88,147.55z"/>
					</g>
					<g style="opacity:0.3;">
						<path style="fill:#FFFFFF;" d="M302.024,107.338c5.668,11.152,10.087,22.959,12.674,35.183
							c1.246,6.116,2.065,12.331,2.154,18.569c0.134,6.231-0.455,12.489-1.989,18.515c-1.57,5.99-4.112,11.833-8.175,16.548
							c-4.008,4.733-9.505,8.175-15.543,9.647c-6.037,1.522-12.438,1.215-18.485-0.237c-6.094-1.369-11.879-3.909-17.353-6.921
							c5.415,3.116,11.16,5.775,17.269,7.272c6.078,1.512,12.545,1.864,18.687,0.362c6.142-1.452,11.777-4.925,15.892-9.722
							c4.171-4.779,6.797-10.701,8.422-16.765c1.515-6.119,2.064-12.438,1.888-18.712c-0.131-6.282-0.996-12.524-2.288-18.657
							c-1.323-6.13-3.14-12.146-5.327-18.017C307.596,118.555,304.973,112.858,302.024,107.338z"/>
					</g>
					<g style="opacity:0.3;">
						<path style="fill:#FFFFFF;" d="M227.274,56.96c-3.091-0.008-6.208,0.494-9.087,1.69c-2.878,1.191-5.458,3.08-7.548,5.407
							c-2.108,2.325-3.643,5.103-4.857,7.973c-1.242,2.875-1.992,5.928-2.555,8.993c-1.012,6.16-1.091,12.445-0.48,18.639
							c0.573,6.205,1.818,12.331,3.508,18.321c1.672,5.998,3.863,11.845,6.442,17.508c2.577,5.664,5.501,11.172,8.793,16.453
							c6.574,10.559,14.463,20.368,23.841,28.63c4.714,4.091,9.798,7.786,15.276,10.828c5.478,3.014,11.395,5.425,17.686,6.335
							c3.134,0.46,6.369,0.471,9.529-0.132c3.145-0.637,6.196-1.922,8.761-3.881c1.294-0.96,2.471-2.071,3.507-3.293
							c1.041-1.216,1.984-2.518,2.762-3.906c1.595-2.756,2.723-5.744,3.501-8.791c1.56-6.109,1.851-12.423,1.52-18.636
							c-0.377-6.221-1.366-12.391-2.934-18.403c-1.564-6.013-3.608-11.889-6.075-17.575c-2.448-5.695-5.297-11.208-8.486-16.509
							c5.974,10.819,10.833,22.303,13.624,34.316c1.453,5.984,2.35,12.098,2.629,18.231c0.239,6.123-0.148,12.313-1.741,18.188
							c-0.793,2.931-1.917,5.768-3.46,8.346c-1.524,2.579-3.47,4.916-5.864,6.669c-2.368,1.791-5.164,2.951-8.077,3.53
							c-2.926,0.542-5.958,0.527-8.939,0.073c-5.978-0.892-11.709-3.243-17.027-6.206c-5.327-2.99-10.286-6.636-14.896-10.664
							c-9.242-8.062-17.076-17.697-23.618-28.095c-6.521-10.42-11.758-21.666-15.305-33.436c-1.754-5.888-3.071-11.916-3.724-18.026
							c-0.695-6.1-0.691-12.293,0.195-18.358c0.481-3.02,1.145-6.034,2.294-8.872c1.121-2.835,2.557-5.588,4.563-7.908
							c1.988-2.322,4.47-4.23,7.274-5.477C221.102,57.653,224.182,57.05,227.274,56.96z"/>
					</g>
				</g>
			</g>
		</g>
		<g id="Bottom_00000153688621985237593160000015248581229082740400_">
			<g>
				<path style="fill:#FFA8A7;" d="M166.684,387.195l-1.418-14.245l17.663-1.697c0,0-0.804,11.233-0.751,16.39
					c0.025,2.43,1.702,7.017,1.702,7.017s-6.986,3.544-10.582,2.035c-3.596-1.509-5.931-7.218-5.835-8.259L166.684,387.195z"/>
				<path style="fill:#263238;" d="M203.925,412.093c0.245,0.014,0.339,2.286-1.061,3.344c-1.616,1.221-6.685,3.481-12.612,2.387
					c-5.927-1.093-9.054-3.092-11.328-5.194c-2.274-2.102-5.46-5.065-8.127-5.802c-2.477-0.685-5.76-2.876-6.519-3.684
					c-0.758-0.808-0.447-4.197-0.447-4.197L203.925,412.093z"/>
				<path id="XMLID_00000119837406411739541530000010660222288320134306_" style="fill:#455A64;" d="M166.557,385.835
					c0,0-0.327,0.149-0.528,0.926c-0.239,0.925-0.597,3.634-1.082,5.148c-0.673,2.104-1.297,6.457-1.07,8.214
					c0.227,1.758,4.871,4.114,7.426,5.24c2.611,1.15,5.578,3.385,8.16,5.737c2.672,2.434,8.436,5.133,12.329,5.322
					c4.607,0.223,9.878-0.955,11.189-2.991c1.623-2.519,2.871-5.481-3.774-8.976c-1.258-0.662-5.642-3.56-7.134-4.605
					c-4.034-2.827-6.84-5.372-8.496-10.07c-0.194-0.549-0.395-1.156-0.899-1.459c-0.387-0.231-0.869-0.229-1.321-0.192
					c-1.147,0.094-5.72,0.457-6.785,0.885c-0.942,0.379-2.271,0.807-2.319,1.964c-0.017,0.402,0.078,0.801,0.188,1.188
					c0.068,0.24,0.114,0.558-0.104,0.686c-0.206,0.121-0.46-0.044-0.629-0.211c-0.678-0.67-1.154-1.508-1.713-2.277
					c-0.299-0.412-1.253-1.73-1.642-2.064c-0.353-0.304-0.816-0.471-1.125-0.811C166.838,387.059,166.544,386.377,166.557,385.835z"
					/>
				<path style="fill:#37474F;" d="M179.462,411.099c-1.134-1.033-2.344-2.038-3.564-2.944l0.001-0.006c0,0,7.748,5.252,11.12,3.252
					c2.173-1.289,1.279-3.052,1.261-3.6c-0.019-0.548,7.587-3.988,9.631-4.113l0,0c0.547,0.339,1,0.629,1.297,0.766
					c5.209,2.395,5.759,5.141,4.673,8.494c-1.311,2.035-6.063,3.948-12.015,3.617C187.974,416.347,182.134,413.533,179.462,411.099z
					"/>
				<path style="fill:#37474F;" d="M187.811,406.179c4.148,1.908,2.291,2.587,1.092,2.688c-1.199,0.101-8.104-4.406-12.264-8.043
					c-4.339-3.794-7.602-8.745-9.215-10.139c-0.601-0.52-1.244-1.153-1.814-1.743c0.165-0.914,0.305-1.747,0.417-2.182
					c0.201-0.777,0.528-0.926,0.528-0.926s0.281,1.225,0.672,1.654c0.309,0.34,0.772,0.507,1.125,0.811
					c0.389,0.334,1.342,1.651,1.642,2.064c0.559,0.77,1.035,1.607,1.713,2.277C175.145,397.479,183.664,404.271,187.811,406.179z"/>
				<g>
					<g>
						<path style="fill:#263238;" d="M188.637,408.237c-0.094-0.005-0.186-0.041-0.26-0.109c-0.171-0.154-0.183-0.416-0.025-0.585
							c1.283-1.378,7.163-4.489,10.267-3.977c0.23,0.037,0.385,0.251,0.346,0.476c-0.038,0.225-0.231,0.373-0.484,0.341
							c-2.899-0.471-8.493,2.628-9.51,3.72C188.883,408.198,188.76,408.243,188.637,408.237z"/>
					</g>
					<g>
						<path style="fill:#263238;" d="M185.066,405.786c-0.094-0.005-0.186-0.041-0.26-0.108c-0.171-0.155-0.182-0.417-0.025-0.585
							c1.282-1.377,7.161-4.486,10.267-3.976c0.23,0.037,0.385,0.251,0.346,0.476c-0.038,0.225-0.249,0.378-0.484,0.341
							c-2.9-0.467-8.493,2.627-9.51,3.719C185.311,405.748,185.188,405.793,185.066,405.786z"/>
					</g>
					<g>
						<path style="fill:#263238;" d="M181.486,403.455c-0.094-0.005-0.186-0.041-0.26-0.108c-0.172-0.154-0.182-0.416-0.025-0.585
							c1.284-1.378,7.163-4.492,10.267-3.976c0.23,0.037,0.385,0.251,0.346,0.476c-0.038,0.225-0.245,0.379-0.484,0.341
							c-2.9-0.471-8.493,2.626-9.51,3.719C181.732,403.417,181.608,403.462,181.486,403.455z"/>
					</g>
					<g>
						<path style="fill:#263238;" d="M178.196,400.836c-0.094-0.005-0.186-0.04-0.26-0.108c-0.172-0.154-0.182-0.416-0.025-0.585
							c1.282-1.378,7.175-4.487,10.267-3.976c0.23,0.037,0.385,0.251,0.346,0.476c-0.038,0.225-0.247,0.377-0.484,0.341
							c-2.896-0.469-8.493,2.627-9.509,3.719C178.442,400.798,178.318,400.844,178.196,400.836z"/>
					</g>
					<g>
						<path style="fill:#263238;" d="M174.975,398.222c-0.091-0.005-0.182-0.039-0.255-0.104c-0.174-0.152-0.188-0.414-0.034-0.585
							c1.767-1.956,7.883-4.488,10.986-3.978c0.23,0.037,0.385,0.251,0.346,0.476c-0.038,0.226-0.247,0.372-0.484,0.341
							c-2.794-0.458-8.651,1.977-10.219,3.711C175.225,398.183,175.099,398.229,174.975,398.222z"/>
					</g>
				</g>
			</g>
			<g>
				<path style="fill:#FFA8A7;" d="M136.439,395.18l3.776-17.564l-17.305-2.473l-0.104,17.292c0,0-1.273,4.667-0.284,6.253
					c0.989,1.586,11.386,3.134,12.327,2.057C135.79,399.669,136.439,395.18,136.439,395.18z"/>
				<path style="fill:#263238;" d="M134.992,422.801c-0.415,3.934-1.213,6.485-2.892,8.635c-1.679,2.15-4.704,2.552-7.712,1.54
					c-3.008-1.013-6.823-3.257-7.56-6.77c-0.736-3.514-0.469-5.837,0.363-9.436L134.992,422.801z"/>
				<path id="XMLID_00000137842149756529943170000007843896215275551412_" style="fill:#455A64;" d="M122.807,392.436
					c-1.254-0.05-0.884,3.038-1.421,8.342c-0.581,5.738-3.12,10.263-3.994,14.869c-0.997,5.263-0.773,7.687,1.218,11.153
					c1.99,3.466,9.362,7.458,13.236,3.231c3.158-3.447,3.446-7.62,3.38-12.991c-0.069-5.552-0.166-9.463,0.252-13.625
					c0.4-3.978,2.03-7.67,0.961-8.234c-0.107,0.579-1.13,4.616-1.832,4.56c-0.045-0.519-0.014-0.994,0.045-1.51
					c0.051-0.449,0.027-0.948-0.292-1.329c-0.322-0.385-1.521-0.854-2.025-0.998c-1.222-0.35-3.404-0.777-4.65-1.014
					c-0.62-0.118-1.244-0.212-1.87-0.275c-0.507-0.05-1.106-0.078-1.592,0.027c-0.299,0.064-0.579,0.22-0.698,0.469
					c-0.088,0.184-0.081,0.398-0.089,0.604c-0.014,0.37-0.081,0.734-0.199,1.081c-0.052,0.153-0.183,0.332-0.36,0.274
					c-0.144-0.047-0.195-0.213-0.191-0.346C122.707,396.077,122.767,392.775,122.807,392.436z"/>
				<path style="fill:#37474F;" d="M117.735,414.157c-0.152,0.759-1.089,5.786,0.447,6.879c1.662,1.183,2.752-2.731,2.752-2.731
					s4.032-0.645,9.751,2.24c-0.33,0.796,0.459,3.627,2.075,3.224c1.605-0.4,2.459-6.191,2.47-6.267
					c0.042,5.147-0.318,9.182-3.384,12.528c-3.874,4.228-11.246,0.236-13.236-3.231c-1.991-3.466-2.215-5.89-1.217-11.153
					C117.492,415.12,117.608,414.629,117.735,414.157z"/>
				<path style="fill:#37474F;" d="M121.376,418.697c-0.101,1.931-2.232,1.042-2.219-1.699c0.013-2.74,1.383-9.412,1.883-13.9
					c0.299-6.45,0.513-10.712,1.767-10.663c-0.007,0.065-0.008,0.131-0.014,0.196c0,0-0.093,3.674-0.106,4.091
					c-0.185,3.94-0.16,11.591-0.684,15.155C121.478,415.442,121.476,416.766,121.376,418.697z"/>
				<path style="fill:#37474F;" d="M130.014,420.417c0.485-1.854,0.88-3.1,1.456-6.654c0.571-3.527,2.607-10.601,3.613-14.403
					c0.331-0.627,1.357-4.18,1.357-4.18c0.869,0.234,0.036,3.621-0.354,5.206c-0.39,1.585-0.868,3.285-1.353,5.558
					c-1.252,4.483-1.308,11.19-2.118,13.772C131.805,422.298,129.529,422.271,130.014,420.417z"/>
				<g>
					<g>
						<path style="fill:#263238;" d="M130.802,420.714c-0.058-0.011-0.114-0.033-0.167-0.062c-0.044-0.026-4.502-2.577-9.597-1.938
							c-0.251,0.03-0.499-0.129-0.555-0.353c-0.058-0.226,0.099-0.434,0.349-0.466c5.451-0.684,10.067,1.963,10.262,2.077
							c0.222,0.129,0.301,0.387,0.173,0.575C131.171,420.689,130.983,420.75,130.802,420.714z"/>
					</g>
					<g>
						<path style="fill:#263238;" d="M132.009,416.632c-0.052-0.01-0.103-0.028-0.152-0.055c-0.049-0.026-5.069-2.703-10.745-2.165
							c-0.251,0.02-0.494-0.142-0.544-0.369c-0.049-0.227,0.116-0.43,0.367-0.454c6.003-0.565,11.136,2.176,11.352,2.291
							c0.227,0.124,0.315,0.379,0.197,0.572C132.391,416.602,132.198,416.669,132.009,416.632z"/>
					</g>
					<g>
						<path style="fill:#263238;" d="M121.57,410.459c-0.174-0.035-0.328-0.156-0.382-0.319c-0.073-0.224,0.065-0.444,0.311-0.49
							c5.671-1.067,11.11,2.061,11.341,2.196c0.223,0.129,0.301,0.386,0.173,0.575c-0.127,0.187-0.413,0.229-0.632,0.104
							c-0.052-0.03-5.337-3.064-10.614-2.064C121.701,410.473,121.635,410.471,121.57,410.459z"/>
					</g>
					<g>
						<path style="fill:#263238;" d="M122.039,406.735c-0.172-0.034-0.323-0.152-0.379-0.312c-0.078-0.225,0.056-0.445,0.299-0.495
							c6.242-1.28,11.356,2.048,11.571,2.19c0.214,0.142,0.274,0.402,0.133,0.581c-0.141,0.179-0.434,0.21-0.642,0.068
							c-0.047-0.032-4.969-3.222-10.778-2.032C122.174,406.749,122.105,406.748,122.039,406.735z"/>
					</g>
					<g>
						<path style="fill:#263238;" d="M122.584,402.553c-0.169-0.034-0.319-0.149-0.378-0.307c-0.081-0.222,0.049-0.445,0.292-0.499
							c5.852-1.283,11.415,2.164,11.648,2.313c0.218,0.136,0.284,0.396,0.148,0.579c-0.134,0.183-0.42,0.223-0.639,0.081
							c-0.054-0.034-5.429-3.361-10.862-2.17C122.724,402.567,122.652,402.567,122.584,402.553z"/>
					</g>
				</g>
			</g>
			<g>
				<path style="fill:#37474F;" d="M130.376,240.404c-2.261,10.641-3.696,16.992-4.251,44.388
					c-0.523,25.825-1.046,34.134-1.152,37.388c-0.105,3.253-2.791,10.518-3.336,26.316c-0.555,16.102,1.169,33.345,1.169,33.345
					s1.805,2.752,7.933,3.301c5.653,0.507,9.094-1.985,9.094-1.985s7.568-30.572,9.712-40.225
					c2.144-9.653,7.916-41.655,7.916-41.655l2.273,25.741c0,0-1.573,8.931,0.432,23.47c1.934,14.026,5.445,27.699,5.445,27.699
					s2.389,1.975,8.991,1.595c4.829-0.278,8.604-1.75,8.604-1.75s2.329-41.753,2.817-57.675c0.534-17.429-0.587-55.809-2.943-79.953
					H130.376z"/>
				<path style="fill:#263238;" d="M162.509,270.645l-5.047,30.631l2.273,25.741l-0.146-26.085l4.509-25.134
					c3.841-0.921,12.581-5.527,14.982-12.105C173.16,269.884,162.509,270.645,162.509,270.645z M144.557,252.739
					c0.678-2.574,1.394-5.133,2.198-7.709c-1.446,2.286-2.532,4.781-3.458,7.314c-0.934,2.535-1.665,5.134-2.304,7.751
					c-0.608,2.624-1.113,5.27-1.459,7.94c-0.354,2.666-0.592,5.358-0.533,8.06c0.643-2.621,1.242-5.222,1.836-7.824
					c0.608-2.599,1.177-5.2,1.807-7.785C143.243,257.892,143.894,255.315,144.557,252.739z M140.699,250.809
					c0.867-1.571,1.739-3.147,2.535-4.804c-1.36,1.238-2.551,2.627-3.644,4.088c-1.102,1.456-2.072,3.006-2.963,4.602
					c-0.862,1.611-1.645,3.271-2.247,5.003c-0.61,1.725-1.079,3.516-1.235,5.351l2.451-4.825c0.831-1.581,1.654-3.159,2.521-4.717
					C138.956,253.934,139.842,252.385,140.699,250.809z M137.502,353.088c-1.493,8.296-2.877,16.611-4.154,24.943
					c1.926-8.212,3.744-16.44,5.454-24.688c1.734-8.252,3.367-16.487,4.987-24.789c1.515-8.323,2.54-16.71,3.353-25.103
					c0.831-8.392,1.437-16.799,1.946-25.216c-1.161,8.352-2.206,16.715-3.257,25.068c-1.08,8.349-2.174,16.691-3.71,24.943
					C140.542,336.488,138.969,344.796,137.502,353.088z M178.406,311.05c0.121,3.872,0.337,7.17,0.286,10.958
					c-0.052,3.788-0.273,7.073-0.417,11.055c-0.108,2.992-0.269,7.896-0.308,10.806c-0.104,7.764,0.025,14.674,0.005,22.224
					c0.619-7.349,1-14.686,1.309-22.03c0.308-7.344,0.997-14.69,1.067-22.029c0.07-7.338-0.615-14.655-0.971-21.965
					c-0.356-7.31-1.017-14.587-1.863-21.805c0.259,6.91,0.409,15.116,0.553,21.695C178.162,304.342,178.285,307.178,178.406,311.05z
					"/>
			</g>
		</g>
		<g id="Top_7_">
			<g>
				<path style="fill:#F5F5F5;" d="M126.813,256.132c1.383-10.619,2.48-19.48,2.066-23.493c-0.871-8.443-1.358-9.975-2.066-14.711
					c-1.542-10.314,3.183-21.92,5.585-23.952c0,0,12.459-2.74,14.889-3.143c6.971-1.157,10.543-0.736,12.812-0.505
					c1.119,0.114,11.92,1.869,11.92,1.869s3.175,3.499,5.696,7.517c2.848,4.538,5.001,7.871,5.602,18.448
					c0.707,12.456,0.889,29.088,1.445,36.867C174.927,266.752,139.151,266.319,126.813,256.132z"/>
			</g>
			<g>
				<g id="Head_00000060023321011925285740000012460859322252908679_">
					<path style="fill:#37474F;" d="M170.408,168.837c0.21-0.295,0.651-1.185,1.08-1.384c5.183-5.247,3.461-11.17,1.578-14.787
						c-4.203-8.074-13.647-9.804-19.38-9.487c-8.893,0.491-14.74,3.748-18.575,8.436c-4.067,4.971-4.512,11.938-4.003,19.608
						c0.413,6.231,0.537,13.304,1.063,20.294c2.061,0,3.127-0.116,5.355-0.273c-0.166-1.947-0.377-6.079-0.377-6.079
						s0.86,5.049,1.064,6.008c8.461-0.533,15.074-1.209,21.689-2.259c0.035-1.23-0.017-3.363,0.018-4.593
						c0.281,1.231,0.827,4.905,0.827,4.905s8.616-1.223,11.513-2.441c-0.778-3.58-1.427-9.057-1.541-9.887
						c-0.282-2.053-0.499-3.719-0.641-5.247C169.975,170.537,169.888,169.566,170.408,168.837z"/>
					<g id="XMLID_00000026878342550995358650000017564451873763548556_">
						<g id="XMLID_00000145052885953090735210000008494342149905840063_">
							<path id="XMLID_00000170965492758465838820000003249051364111680440_" style="fill:#FFA8A7;" d="M142.933,179.828
								c-1.828,0.787-3.847-0.023-5.198-1.515c-2.63-2.904-2.903-5.956-1.872-8.032c0.848-1.705,3.3-2.798,5.142-1.88
								c1.451,0.723,1.721,1.536,2.239,2.931c0.234,0.629,0.697,0.98,1.385,0.723c0.739-0.275,0.983-1.089,1.11-1.789
								c0.179-0.985,0.166-1.283,0.148-2.285c-0.004-0.195,0.018-0.474,0.1-0.651c0.105-0.226,0.462-0.29,0.671-0.425
								c1.599-1.031,1.967-1.749,2.699-3.505c0.017,1.199-0.175,2.401-0.565,3.535c2.489-0.714,4.713-2.209,6.512-4.073
								c1.799-1.863,3.191-4.087,4.331-6.412c0.696-1.422,1.311-2.917,1.442-4.495c4.086,1.701,8.004,5.19,8.463,9.795
								c0.115,1.158,0.572,2.415,0.907,3.873c2.441,10.607,0.648,14.978-1.733,17.651c-1.378,1.547-3.561,2.721-7.133,3.235
								l-0.056,4.725c0,0,3.378,7.688,4.169,15.886c0,0-2.524-2.475-12.462-9.01c-6.621-4.354-9.981-5.786-9.981-5.786l1.446-14.862
								C144.697,177.461,144.534,179.138,142.933,179.828z"/>
						</g>
						<path style="fill:#B16668;" d="M160.098,177.158c0,0.622-0.505,1.127-1.127,1.127s-1.127-0.505-1.127-1.127
							c0-0.622,0.505-1.127,1.127-1.127S160.098,176.536,160.098,177.158z"/>
						<g>
							<g id="XMLID_00000029044110166119076170000008474497786611050394_">
								<path id="XMLID_00000044900411996651314560000007948232242465477530_" style="fill:#263238;" d="M167.894,161.527
									l-3.724-0.715c0.16-1.044,1.124-1.73,2.153-1.532C167.35,159.477,168.054,160.484,167.894,161.527z"/>
							</g>
							<g id="XMLID_00000023278123424725781410000003686291678523313060_">
								<path id="XMLID_00000021080891269216202800000006488555410568884153_" style="fill:#263238;" d="M155.106,161.657
									l-3.355,2.282c-0.67-0.91-0.463-2.159,0.465-2.789C153.141,160.52,154.436,160.747,155.106,161.657z"/>
							</g>
							<path style="fill:#263238;" d="M153.525,166.862c0.117,0.847,0.898,1.439,1.744,1.322c0.847-0.116,1.439-0.897,1.322-1.744
								c-0.117-0.847-0.897-1.439-1.744-1.322C154.001,165.235,153.409,166.016,153.525,166.862z"/>
							<path style="fill:#263238;" d="M164.6,165.315c0.117,0.847,0.898,1.439,1.744,1.322c0.847-0.117,1.439-0.897,1.322-1.744
								c-0.117-0.847-0.898-1.439-1.744-1.322C165.076,163.687,164.484,164.468,164.6,165.315z"/>
							<g id="XMLID_00000137117142040665961840000009173267642244180891_">
								<polygon id="XMLID_00000165195239591893972510000002416582117888311987_" style="fill:#F28F8F;" points="159.455,163.939 
									161.15,173.285 166.134,170.983 								"/>
							</g>
							<g id="XMLID_00000166649009735587912880000018377126510263724936_">
								<path id="XMLID_00000064330473198710342070000016946508415921491350_" style="fill:#F28F8F;" d="M161.58,186.509
									c-2.717,0.166-5.862,0.199-9.297-1.007c-2.729-0.958-5.071-4.23-6.077-6.436c0.201,2.322,1.224,5.625,4.621,7.544
									c4.873,2.753,10.764,2.043,10.764,2.043L161.58,186.509z"/>
							</g>
						</g>
					</g>
				</g>
			</g>
			<g id="Hand_1_">
				<path style="fill:#FFA8A7;" d="M132.397,193.977c-6.651,1.107-8.888,3.167-11.636,10.37c-2.656,6.962-8.805,22.63-6.985,33.147
					c1.111,6.42,17.307-9.704,17.307-9.704l5.375-16.808C136.46,210.982,137.195,196.502,132.397,193.977z"/>
				<path style="fill:#F28F8F;" d="M136.897,199.008c1.617,4.672,1.94,10.911,1.94,10.911l-7.753,17.871c0,0-2.331,2.32-5.285,4.849
					l-11.011-5.701c0.151-2.729,6.43-10.702,10.314-14.773C127.981,209.148,133.896,202.192,136.897,199.008z"/>
				<g>
					<g>
						<path style="fill:#FFA8A7;" d="M134.245,202.795c1.424-2.014,2.9-4.078,3.645-7.082c0.745-3.004,3.116-5.765,3.921-6.903
							c0.805-1.138,2.546-2.809,3.873-4.406c1.326-1.596,1.718-2.04,3.627-2.363c2.621-0.444,4.679-0.857,5.705-0.544
							c1.027,0.313,0.997,0.986,0.105,1.895c-0.865,0.881-2.769,1.129-3.355,1.306c-0.585,0.177-1.861,0.733-1.861,0.733
							l-2.426,3.575c0,0,4.118,0.761,4.924,1.2c0.806,0.439,1.497,2.527,1.143,3.678c0,0,1.51,1.023,0.918,2.51
							c0,0,0.923,1.203,0.291,2.189c-0.632,0.986-1.948,2.289-2.451,2.721c-0.503,0.432-2.485,0.541-2.485,0.541
							s-1.692,2.557-3.104,3.604c-1.412,1.047-2.338,0.98-3.886,3.169L134.245,202.795z"/>
						<path style="fill:#F28F8F;" d="M149.331,189.376c0.973-0.42,1.189-1.08,2.11-0.731c0.921,0.349,0.568,1.401,0.568,1.401
							L149.331,189.376z"/>
						<path style="fill:#F28F8F;" d="M153.516,193.977c0,0-0.756-0.686-2.002-1.293c-0.674-0.328-2.08-0.825-2.08-0.825
							s1.642,0.127,2.857,0.676c1.168,0.528,1.335,0.665,1.346,0.675c-0.003,0.244-0.031,0.473-0.093,0.674L153.516,193.977z"/>
						<path style="fill:#F28F8F;" d="M153.649,195.363c0.392,0.163,0.714,0.337,0.945,0.476c-0.014,0.176-0.081,0.47-0.158,0.663
							c-0.539-0.766-2.588-1.612-2.588-1.612S152.825,195.02,153.649,195.363z"/>
						<path style="fill:#F28F8F;" d="M149.447,202.381c0.434-0.871,1.414-2.557,2.011-3.237c0.598-0.68,1.751-0.579,2.01-0.187
							c0.26,0.392-1.076,0.342-1.466,0.513C151.614,199.641,150.129,201.299,149.447,202.381z"/>
						<path style="fill:#F28F8F;" d="M146.35,188.901c0,0,0.754-1.064,2.104-2.756c1.349-1.692,1.266-1.446,2.576-1.706
							c1.224-0.243,3.791-0.696,4.465-1.485c-0.1,0.139-0.224,0.285-0.374,0.438c-0.865,0.881-2.769,1.129-3.355,1.306
							c-0.585,0.177-1.861,0.733-1.861,0.733l-2.496,3.679L146.35,188.901z"/>
					</g>
					<path style="fill:#FFA8A7;" d="M134.245,202.795c-4.402,5.309-16.262,18.076-19.006,23.157
						c-1.898,3.513-2.372,11.684-0.438,14.653c1.934,2.969,7.473,1.721,11.955-2.215c3.868-3.397,7.092-11.571,9.901-17.387
						c2.809-5.817,6.172-12.384,6.172-12.384L134.245,202.795z"/>
				</g>
				<path style="fill:#B16668;" d="M134.245,202.794c0.978-1.361,1.956-2.737,2.674-4.262c0.362-0.759,0.667-1.546,0.897-2.356
					c0.212-0.815,0.464-1.608,0.829-2.363c0.704-1.518,1.672-2.896,2.687-4.228c0.951-1.39,2.133-2.571,3.27-3.813
					c0.572-0.614,1.116-1.262,1.655-1.901c0.537-0.637,1.139-1.229,1.936-1.464c0.782-0.248,1.628-0.331,2.452-0.486
					c0.827-0.138,1.654-0.277,2.483-0.364c0.806-0.063,1.721-0.164,2.348,0.3c0.309,0.228,0.194,0.648-0.04,0.968
					c-0.236,0.328-0.516,0.63-0.863,0.83c-0.697,0.418-1.521,0.609-2.333,0.791c-0.849,0.17-1.607,0.55-2.385,0.867l-0.033,0.014
					l-0.021,0.032l-2.417,3.581l-0.099,0.147l0.175,0.034c1.487,0.287,2.988,0.566,4.432,0.997c0.765,0.141,1.123,0.873,1.379,1.561
					c0.236,0.698,0.373,1.474,0.187,2.178l-0.017,0.066l0.055,0.04c0.368,0.271,0.69,0.64,0.872,1.061
					c0.096,0.21,0.137,0.439,0.142,0.666c0.013,0.229-0.054,0.454-0.125,0.671l-0.016,0.047l0.027,0.039
					c0.39,0.549,0.659,1.297,0.379,1.927c-0.335,0.599-0.825,1.145-1.298,1.669c-0.242,0.261-0.49,0.517-0.745,0.766
					c-0.268,0.24-0.488,0.526-0.823,0.621c-0.663,0.221-1.385,0.293-2.09,0.348l-0.034,0.003l-0.018,0.027
					c-0.456,0.678-0.94,1.341-1.457,1.974c-0.523,0.628-1.07,1.246-1.732,1.725c-0.656,0.489-1.424,0.81-2.082,1.308
					c-0.663,0.493-1.192,1.135-1.663,1.804c0.48-0.663,1.019-1.296,1.684-1.776c0.66-0.485,1.432-0.795,2.102-1.279
					c0.678-0.476,1.237-1.091,1.771-1.715c0.521-0.621,1.011-1.268,1.469-1.938c0.707-0.053,1.414-0.119,2.101-0.344
					c0.372-0.108,0.619-0.42,0.878-0.649c0.259-0.249,0.51-0.505,0.755-0.768c0.484-0.533,0.968-1.057,1.335-1.706
					c0.309-0.708,0.033-1.478-0.365-2.063c0.074-0.222,0.139-0.453,0.128-0.691c-0.004-0.252-0.05-0.507-0.153-0.736
					c-0.192-0.443-0.508-0.808-0.887-1.102c0.184-0.758,0.044-1.528-0.189-2.238c-0.128-0.365-0.291-0.721-0.522-1.043
					c-0.123-0.155-0.25-0.313-0.434-0.423c-0.178-0.108-0.365-0.167-0.546-0.23c-1.411-0.428-2.844-0.707-4.28-0.991l2.314-3.392
					c0.761-0.31,1.516-0.673,2.308-0.828c0.816-0.189,1.659-0.381,2.408-0.834c0.382-0.225,0.685-0.553,0.934-0.906
					c0.121-0.182,0.235-0.385,0.264-0.629c0.036-0.244-0.08-0.518-0.272-0.661c-0.373-0.294-0.824-0.37-1.253-0.396
					c-0.431-0.023-0.854,0.01-1.275,0.052c-0.84,0.092-1.669,0.236-2.496,0.378c-0.823,0.159-1.66,0.243-2.48,0.505
					c-0.841,0.251-1.487,0.894-2.017,1.533c-0.54,0.647-1.073,1.287-1.642,1.904c-1.122,1.237-2.318,2.447-3.261,3.84
					c-1.01,1.339-1.98,2.73-2.682,4.267c-0.357,0.763-0.602,1.58-0.802,2.391c-0.218,0.808-0.511,1.594-0.862,2.355
					C136.165,200.032,135.206,201.421,134.245,202.794z"/>
			</g>
		</g>
	</g>
</g>
</svg>
